<svg version="1.0" xmlns="http://www.w3.org/2000/svg"

<path d="M16170 17424 c-19 -2 -78 -9 -130 -15 -584 -66 -1205 -335 -1644
-712 -27 -23 -59 -48 -70 -56 -30 -20 -5266 -5253 -5266 -5263 0 -4 40 -60 89
-125 200 -266 353 -534 440 -770 l23 -63 1177 -2 1176 -3 42 -23 c63 -33 106
-74 139 -134 l29 -53 0 -985 0 -985 -29 -53 c-33 -60 -76 -101 -139 -134 l-42
-23 -1319 -3 c-1509 -3 -1379 -10 -1477 87 -94 95 -88 17 -91 1111 -2 757 -6
954 -15 952 -7 -1 -13 5 -13 14 0 9 5 12 13 8 6 -4 9 -4 5 1 -4 4 -3 14 3 21
11 14 -6 14 -28 1 -7 -4 -17 0 -23 10 -10 15 -11 16 -6 1 5 -17 -16 -43 -27
-32 -3 3 -11 -4 -17 -16 -9 -17 -14 -19 -26 -9 -12 10 -15 10 -12 -1 2 -8 -1
-14 -7 -15 -5 0 -15 -4 -22 -8 -7 -4 -16 0 -23 10 -10 17 -10 16 -8 -2 2 -11
-2 -19 -8 -18 -6 1 -11 -5 -11 -13 0 -11 4 -11 19 3 10 9 18 11 18 6 0 -6 -7
-16 -15 -23 -9 -7 -14 -19 -11 -26 3 -7 1 -16 -4 -19 -9 -6 -14 8 -11 28 1 5
-3 6 -8 2 -6 -3 -8 -11 -5 -19 3 -9 -5 -12 -28 -12 -23 1 -33 -4 -33 -14 0 -8
-9 -15 -20 -15 -11 0 -20 5 -20 12 0 6 -3 14 -7 17 -5 3 -6 3 -3 -1 3 -3 0
-12 -6 -20 -11 -13 -10 -14 13 -17 6 0 12 -18 14 -39 2 -40 -16 -39 -19 1 0
11 -4 19 -8 16 -4 -2 -5 -14 -1 -26 3 -13 1 -19 -6 -15 -5 4 -9 18 -8 32 2 13
-1 22 -5 19 -5 -3 -9 -16 -9 -30 0 -14 -4 -23 -9 -19 -6 3 -8 14 -6 25 2 10
-4 25 -13 32 -13 11 -14 11 -7 -2 13 -22 14 -61 1 -57 -6 2 -11 13 -11 25 0
11 -3 23 -6 27 -4 3 -6 -4 -5 -16 0 -12 -4 -24 -10 -26 -7 -2 -10 6 -9 19 1
15 1 17 -2 4 -4 -16 -7 -17 -14 -5 -7 11 -9 11 -9 1 0 -7 -5 -10 -10 -7 -6 4
-9 1 -8 -7 2 -7 -3 -12 -10 -10 -8 1 -11 -1 -8 -6 2 -4 1 -14 -4 -22 -5 -9 -5
-19 1 -27 7 -8 7 -19 -1 -33 -6 -12 -9 -24 -6 -28 3 -3 6 1 6 9 0 11 2 11 10
-1 9 -13 10 -13 10 0 1 9 6 6 14 -8 13 -24 13 -24 13 7 0 26 -3 29 -19 20 -19
-10 -27 5 -8 16 8 5 7 11 0 20 -9 10 -9 19 0 32 9 16 10 15 4 -6 -4 -16 -3
-21 5 -17 6 4 11 15 12 24 0 14 2 13 8 -3 5 -11 7 -23 5 -26 -2 -3 7 -5 19 -4
16 1 22 8 21 23 -1 12 3 19 7 16 5 -3 7 -10 4 -15 -4 -5 -2 -9 4 -9 5 0 11 6
14 13 2 6 3 4 1 -6 -1 -9 2 -15 7 -11 5 3 9 12 9 20 0 8 5 14 10 14 7 0 7 -6
0 -20 -7 -14 -7 -20 0 -20 5 0 10 -4 10 -9 0 -11 -19 -9 -38 3 -8 5 -19 3 -25
-3 -9 -9 -7 -10 7 -5 17 7 19 4 13 -27 -5 -24 -4 -30 3 -19 9 13 10 13 10 0 0
-13 2 -13 11 0 9 13 10 12 5 -2 -3 -10 0 -18 5 -18 6 0 9 9 6 20 -3 11 -1 18
4 14 5 -3 6 3 3 13 -5 14 -4 15 4 4 8 -11 11 -9 17 9 6 18 9 20 16 9 7 -12 9
-11 9 1 0 12 2 13 9 1 7 -11 11 -8 17 10 4 13 9 30 10 37 1 8 6 17 10 20 4 4
4 -7 1 -25 -4 -18 -2 -35 3 -38 6 -3 10 -11 10 -18 0 -6 -7 -2 -16 9 -14 17
-15 17 -10 1 3 -11 2 -16 -4 -12 -6 3 -10 0 -10 -7 0 -9 -3 -9 -10 2 -6 10
-10 11 -10 3 0 -21 4 -28 15 -25 6 2 7 0 3 -4 -4 -4 -3 -13 3 -20 7 -8 6 -14
-2 -20 -7 -4 -9 -3 -6 3 4 6 -2 18 -13 28 -21 19 -29 8 -9 -12 8 -8 7 -13 -2
-18 -7 -5 -10 -4 -6 1 3 5 -1 18 -10 29 -14 19 -14 18 -9 -14 3 -25 2 -31 -7
-22 -18 18 -29 13 -17 -8 7 -14 7 -22 0 -26 -6 -4 -10 -3 -9 2 8 44 -27 34
-37 -10 l-7 -32 -9 25 -9 25 -23 -27 c-19 -24 -22 -25 -22 -9 0 11 3 19 6 18
6 -2 10 8 10 26 0 9 -3 8 -9 -2 -6 -9 -11 -10 -15 -2 -4 6 -2 11 3 11 6 0 11
5 11 11 0 5 -4 8 -9 4 -6 -3 -15 3 -20 12 -9 15 -10 13 -7 -12 2 -16 5 -30 6
-30 2 0 4 -10 5 -22 1 -12 -1 -20 -6 -17 -4 2 -6 11 -3 19 4 10 0 13 -16 10
-20 -4 -21 -3 -8 13 15 18 13 56 -2 47 -5 -3 -12 0 -16 6 -4 8 -3 9 4 5 12 -7
17 6 6 17 -10 9 -34 -4 -27 -16 4 -6 1 -7 -7 -2 -10 6 -12 4 -7 -7 3 -9 -2
-26 -11 -39 -9 -13 -14 -26 -12 -28 3 -2 -3 -5 -13 -7 -16 -2 -39 25 -36 43 4
21 -2 44 -9 39 -26 -16 15 -114 42 -99 6 4 2 -3 -8 -15 -21 -24 -36 -31 -17
-8 12 15 -7 38 -36 42 -8 2 -18 6 -21 10 -4 4 1 4 11 1 12 -5 17 -3 15 5 -5
15 -46 18 -56 4 -12 -17 -8 -41 7 -38 7 1 10 -2 6 -8 -5 -8 -11 -8 -20 0 -14
11 -14 27 -2 47 4 6 3 14 -3 18 -5 3 -10 0 -10 -7 0 -9 -3 -9 -10 2 -12 20
-31 20 -55 0 -18 -14 -34 -18 -50 -10 -14 7 -72 5 -82 -3 -7 -5 -13 -6 -13 -2
0 4 -6 2 -14 -4 -10 -8 -16 -9 -21 -1 -4 6 -3 9 2 8 4 -2 9 2 11 7 1 6 -6 10
-15 10 -10 0 -19 -6 -19 -12 -1 -7 -3 -16 -4 -20 -1 -5 -1 -12 0 -18 1 -5 -2
-7 -6 -3 -4 4 -13 3 -20 -3 -8 -7 -14 -7 -19 1 -4 6 -3 9 2 8 4 -2 9 2 11 7 1
6 -2 11 -8 11 -5 1 -12 3 -15 4 -13 6 -51 5 -60 -1 -7 -5 -11 1 -11 15 0 12 6
23 12 23 7 0 12 -5 11 -11 -1 -5 7 -10 18 -11 11 0 21 6 21 13 4 36 4 37 14
22 9 -13 10 -13 10 0 0 12 2 12 9 2 7 -11 9 -11 14 2 4 9 2 16 -2 16 -5 0 -8
8 -7 17 3 19 56 28 56 10 0 -6 7 -2 16 9 15 19 15 19 5 -2 -5 -11 -9 -28 -7
-37 2 -18 16 -36 16 -21 0 6 11 10 25 10 14 0 25 -4 25 -8 0 -5 -6 -8 -12 -7
-25 3 -39 -1 -34 -9 4 -7 47 -9 64 -3 1 1 -2 10 -8 21 -7 13 -21 20 -40 20
-17 0 -30 5 -30 10 0 13 47 5 68 -12 13 -11 15 -11 8 2 -4 8 2 4 13 -9 13 -14
21 -18 21 -10 0 12 2 12 9 1 7 -11 9 -11 14 2 4 9 2 17 -3 17 -6 1 -14 3 -20
4 -5 1 -14 3 -20 4 -11 1 -9 29 4 49 5 8 3 11 -5 10 -7 -2 -13 2 -14 9 0 6 -3
14 -6 18 -4 3 -6 -3 -5 -14 0 -11 -3 -21 -9 -21 -5 0 -9 10 -9 21 1 11 -1 17
-5 14 -3 -4 -6 -11 -6 -16 0 -5 -4 -8 -10 -6 -5 1 -9 4 -8 8 1 3 -9 5 -22 5
-13 0 -23 -2 -22 -5 1 -4 -2 -6 -8 -6 -5 0 -9 4 -7 9 2 5 -3 4 -11 -2 -8 -7
-16 -9 -19 -7 -3 3 -5 -4 -4 -17 1 -17 -4 -23 -19 -23 -15 0 -20 6 -19 23 1
13 -1 20 -4 17 -3 -2 -11 0 -18 6 -8 7 -14 7 -19 -1 -4 -6 -3 -9 2 -8 4 2 9
-1 11 -7 1 -5 -10 -10 -25 -10 -23 0 -28 4 -27 23 1 13 -1 20 -5 17 -3 -4 -6
-12 -6 -18 0 -7 -13 -12 -30 -12 -20 0 -30 5 -30 15 0 8 -4 15 -10 15 -5 0
-17 4 -25 9 -10 6 -9 2 3 -11 10 -12 14 -24 9 -27 -6 -3 -12 0 -15 8 -5 12
-33 15 -44 6 -2 -2 -7 -3 -12 -4 -5 0 -13 -4 -17 -8 -4 -4 -14 -2 -23 5 -14
11 -15 10 -1 -7 8 -11 14 -22 12 -25 -1 -3 13 -6 32 -6 28 -1 33 2 31 17 -2
10 0 20 6 23 9 6 14 -10 9 -30 -8 -38 -8 -45 1 -50 5 -4 9 0 9 7 1 8 4 7 10
-4 10 -16 49 -19 40 -2 -3 5 -12 8 -20 6 -9 -1 -7 3 5 10 11 7 31 13 45 14 14
1 25 2 25 4 0 1 12 3 28 4 15 2 27 -1 27 -6 0 -4 -6 -9 -12 -9 -7 -1 -17 -2
-23 -4 -5 -1 -23 -3 -38 -3 -16 -1 -26 -6 -22 -11 5 -9 15 -9 65 4 11 3 28 7
38 9 9 2 22 6 27 8 6 1 11 -1 13 -7 2 -11 -1 -12 -45 -14 -22 -1 -25 -3 -13
-11 11 -8 7 -9 -16 -5 -28 4 -30 3 -28 -26 1 -21 -1 -27 -9 -21 -15 11 -68 9
-87 -3 -12 -7 -13 -6 -3 7 7 8 10 18 6 21 -3 4 -12 -1 -20 -11 -12 -15 -12
-15 -7 0 3 10 1 16 -8 14 -23 -3 -39 -17 -32 -28 4 -7 2 -8 -5 -4 -9 6 -9 11
1 23 22 27 18 43 -12 43 -26 0 -46 26 -41 54 1 5 -4 5 -11 0 -23 -18 -64 -2
-52 19 4 7 3 8 -2 4 -15 -14 -13 -62 4 -75 16 -12 15 -13 -2 -10 -10 2 -21 -2
-23 -8 -2 -6 8 -10 24 -9 15 1 27 7 25 13 -1 7 3 11 10 10 7 -2 12 2 13 9 0
18 15 28 15 10 0 -9 -5 -19 -10 -22 -6 -4 -7 -11 -4 -17 4 -6 10 -5 15 3 7 11
9 11 9 -1 0 -13 1 -13 10 0 9 13 10 13 10 0 0 -13 1 -13 10 0 5 8 10 10 10 4
0 -6 -7 -17 -15 -24 -11 -9 -12 -16 -5 -25 8 -9 8 -15 0 -20 -6 -4 -9 -3 -8 2
2 4 -1 8 -7 8 -5 0 -9 -4 -7 -8 1 -5 -2 -6 -8 -2 -8 5 -8 11 0 20 8 9 8 15 0
20 -5 3 -10 0 -10 -7 0 -9 -3 -9 -10 2 -12 20 -31 20 -53 1 -22 -18 -45 -23
-53 -10 -3 5 -11 6 -17 3 -7 -4 -9 -4 -5 1 4 4 3 14 -2 21 -6 6 -9 18 -8 25 2
8 -4 13 -13 11 -12 -2 -21 14 -34 60 -10 35 -18 77 -19 95 0 17 -4 29 -8 27
-3 -2 -12 13 -18 33 -7 21 -16 42 -21 48 -5 5 -9 17 -9 27 0 10 -3 18 -8 18
-4 0 -16 17 -27 38 -11 20 -22 39 -25 42 -3 3 -21 25 -40 50 -42 55 -131 142
-181 178 -21 15 -71 51 -111 79 -40 29 -78 57 -85 63 -7 5 -15 10 -18 10 -3 0
-27 10 -53 21 -106 49 -173 60 -350 57 -100 -1 -173 -6 -181 -12 -12 -9 -13
-8 -6 4 6 12 5 12 -5 3 -9 -9 -17 -9 -30 0 -13 8 -22 8 -32 0 -7 -6 -25 -10
-40 -8 -18 2 -25 -1 -22 -10 9 -22 -24 -43 -78 -50 -29 -4 -61 -11 -70 -17
-11 -5 -25 -5 -35 0 -23 12 -43 5 -44 -16 0 -9 -3 -12 -5 -6 -6 14 -44 6 -44
-8 0 -5 5 -6 12 -2 6 4 8 3 5 -4 -4 -5 -16 -8 -27 -5 -12 3 -20 0 -20 -6 0 -7
5 -9 12 -5 7 5 8 3 4 -5 -5 -7 -14 -10 -22 -7 -8 3 -14 1 -14 -4 0 -6 -7 -10
-16 -10 -10 0 -14 -6 -11 -14 4 -10 -1 -12 -16 -9 -18 4 -19 3 -7 -7 11 -9 12
-13 3 -17 -7 -2 -13 -11 -13 -18 0 -7 -6 -16 -12 -19 -7 -3 5 -3 26 0 35 5 37
4 23 -10 -8 -9 -18 -16 -21 -16 -3 0 -17 -10 -31 -22 -24 -21 -34 -58 -16 -58
16 0 21 -33 12 -72 -8 -33 -6 -38 11 -44 19 -6 19 -6 -1 -28 -12 -12 -21 -28
-21 -36 0 -7 -8 -19 -17 -27 -17 -13 -17 -14 4 -29 l22 -16 -21 -28 c-11 -15
-18 -32 -15 -37 2 -4 -12 -21 -33 -38 -59 -46 -97 -120 -49 -95 11 7 23 9 26
7 6 -7 -19 -50 -35 -60 -15 -10 -16 -34 -1 -39 9 -3 9 -10 0 -26 -10 -18 -9
-23 3 -28 22 -8 34 2 41 36 4 18 15 32 28 36 12 4 33 20 46 35 16 20 33 29 52
29 16 0 29 -3 29 -6 0 -17 -43 -74 -56 -74 -8 0 -14 -4 -14 -10 0 -5 -7 -10
-15 -10 -8 0 -15 -7 -15 -15 0 -8 -11 -25 -25 -39 -14 -14 -25 -33 -25 -43 0
-10 -7 -27 -15 -37 -8 -11 -15 -26 -15 -33 0 -15 -90 -163 -100 -163 -6 0 -37
-59 -100 -190 -12 -25 -23 -64 -26 -88 -5 -46 -48 -106 -71 -98 -8 3 -13 -2
-13 -14 0 -25 -17 -26 -22 -3 -2 10 -9 -2 -17 -27 -7 -25 -19 -58 -26 -75 -7
-16 -19 -50 -26 -75 -7 -25 -16 -49 -21 -54 -4 -6 -8 -18 -8 -27 0 -9 -9 -19
-20 -22 -11 -3 -26 -22 -36 -46 -14 -36 -20 -41 -49 -41 -29 0 -33 -4 -44 -40
-13 -44 -31 -62 -31 -31 0 11 4 22 9 26 6 3 13 27 16 53 8 52 21 101 42 150
16 36 12 48 -10 39 -8 -3 -19 -27 -26 -54 -7 -26 -17 -63 -22 -81 -6 -18 -13
-57 -16 -87 -7 -63 -17 -70 -33 -21 -11 33 -9 63 5 99 4 10 3 17 -4 17 -18 0
-13 31 14 85 28 58 35 115 10 95 -8 -7 -15 -18 -15 -24 0 -7 -16 -43 -35 -82
-20 -40 -35 -84 -35 -105 0 -19 -7 -44 -15 -55 -8 -10 -15 -27 -15 -37 0 -33
-31 -113 -54 -142 l-23 -29 -4 42 c-3 23 1 80 8 127 7 49 9 95 4 108 -5 12 -5
33 -1 47 3 14 6 48 5 77 0 28 3 49 7 47 7 -4 12 24 10 47 -1 3 5 6 12 6 8 0
11 -12 9 -36 -9 -92 -9 -112 -1 -117 4 -3 8 0 8 7 0 6 9 20 21 29 18 16 30 50
32 88 0 6 4 12 8 12 4 0 6 9 4 20 -2 11 0 20 6 20 5 0 8 3 7 8 -1 4 3 17 10
30 7 12 10 27 7 32 -3 6 -1 10 5 10 6 0 8 5 5 10 -3 5 -1 10 6 10 7 0 9 3 6 7
-4 3 -2 12 3 18 17 21 -38 11 -58 -10 -16 -18 -16 -18 3 -4 18 13 19 13 7 -3
-8 -10 -20 -14 -29 -11 -10 4 -14 2 -9 -5 3 -6 2 -13 -2 -16 -5 -3 -9 12 -9
34 0 22 4 37 8 35 4 -3 10 8 14 25 4 16 10 30 13 30 10 0 36 60 72 165 29 85
83 180 122 216 10 9 15 19 11 23 -3 3 0 6 7 6 7 0 11 3 7 6 -3 3 5 18 18 32
13 14 22 29 19 33 -2 4 6 15 18 23 12 9 19 16 15 16 -4 0 0 14 8 30 9 17 13
35 10 39 -3 5 1 12 7 14 10 4 10 6 0 6 -10 1 -10 6 -2 21 14 25 5 41 -18 33
-13 -4 -13 -2 3 10 15 11 22 12 27 4 6 -9 8 -9 8 1 0 19 -4 27 -12 24 -5 -1
-8 4 -8 10 0 9 -4 8 -10 -2 -6 -10 -10 -11 -10 -2 0 20 4 27 15 24 5 -2 6 0 2
4 -9 10 -56 14 -55 5 0 -3 0 -13 -1 -21 -1 -13 -2 -13 -11 0 -9 13 -10 13 -10
0 0 -13 -1 -13 -10 0 -7 11 -10 11 -10 2 0 -7 -5 -10 -10 -7 -6 4 -7 12 -3 18
5 9 3 9 -8 0 -12 -10 -18 -10 -29 0 -10 10 -11 9 -4 -3 5 -8 9 -19 9 -25 0
-11 44 -15 60 -5 17 11 38 6 42 -10 4 -13 3 -13 -6 0 -6 8 -11 13 -12 10 0 -3
-2 -13 -4 -22 -2 -10 1 -20 6 -24 5 -3 9 1 9 8 0 8 4 7 11 -4 5 -10 17 -15 27
-12 10 4 13 3 6 -3 -6 -4 -10 -16 -8 -26 1 -11 0 -16 -3 -13 -4 3 -13 0 -22
-7 -14 -10 -14 -10 -4 4 7 9 10 19 6 22 -3 4 -12 -1 -20 -11 -12 -15 -12 -15
-7 0 3 10 1 16 -8 14 -23 -3 -39 -17 -32 -28 4 -7 2 -8 -5 -4 -9 6 -9 11 1 23
22 27 18 43 -12 43 -26 0 -46 26 -41 54 1 5 -4 5 -11 0 -23 -18 -64 -2 -52 19
4 7 3 8 -2 4 -15 -14 -13 -62 4 -75 16 -12 15 -13 -2 -10 -10 2 -21 -2 -23 -8
-2 -6 8 -10 24 -9 15 1 27 7 26 13 -2 7 2 11 9 9 7 -1 12 3 13 10 0 18 15 28
15 10 0 -9 -5 -19 -10 -22 -6 -4 -7 -11 -4 -17 4 -6 10 -5 15 3 7 11 9 11 9
-1 0 -13 1 -13 10 0 9 13 10 13 10 0 0 -13 1 -13 10 0 5 8 10 10 10 4 0 -6 -7
-17 -15 -24 -11 -9 -12 -16 -5 -25 8 -9 8 -15 0 -20 -6 -4 -9 -3 -8 2 2 4 -2
9 -7 10 -6 1 -9 -6 -9 -17 1 -11 -2 -17 -6 -15 -9 6 -8 25 3 42 4 6 3 14 -3
18 -5 3 -10 0 -10 -7 0 -9 -3 -9 -10 2 -12 20 -31 20 -55 0 -18 -14 -34 -18
-50 -10 -14 7 -72 5 -82 -3 -7 -5 -13 -6 -13 -2 0 4 -6 2 -14 -4 -10 -8 -16
-9 -21 -1 -4 6 -3 9 2 8 4 -2 9 2 11 7 1 6 -6 10 -15 10 -10 0 -19 -6 -19 -12
-1 -7 -3 -16 -4 -20 -1 -5 -1 -12 0 -18 1 -5 -2 -7 -6 -3 -4 4 -13 3 -20 -3
-8 -7 -14 -7 -19 1 -4 6 -3 9 2 8 4 -2 9 2 11 7 1 6 -2 11 -8 11 -5 1 -12 3
-15 4 -13 6 -51 5 -61 -1 -6 -5 -10 1 -10 15 0 12 6 23 12 23 7 0 12 -5 11
-11 -1 -5 7 -10 18 -11 11 0 21 6 21 13 4 36 4 37 14 22 9 -13 10 -13 10 0 0
12 2 12 9 2 7 -11 9 -11 14 2 4 9 2 16 -2 16 -5 0 -8 8 -7 17 3 19 56 28 56
10 0 -6 7 -2 16 9 15 19 15 19 5 -2 -5 -11 -9 -28 -7 -37 2 -18 16 -36 16 -21
0 6 11 10 25 10 14 0 25 -4 25 -8 0 -5 -6 -8 -12 -7 -25 3 -39 -1 -34 -9 4 -7
47 -9 64 -3 1 1 -2 10 -8 21 -7 13 -21 20 -40 20 -17 0 -30 5 -30 10 0 13 47
5 68 -12 13 -11 15 -11 8 2 -4 8 2 4 13 -9 13 -14 21 -18 21 -10 0 12 2 12 9
1 7 -11 9 -11 14 2 4 9 2 17 -3 17 -6 1 -14 3 -20 4 -5 1 -14 3 -20 4 -11 1
-9 29 4 49 5 8 3 11 -5 10 -7 -2 -13 2 -14 9 0 6 -3 14 -6 18 -4 3 -6 -3 -5
-14 0 -11 -3 -21 -9 -21 -5 0 -9 10 -9 21 1 11 -1 17 -5 14 -3 -4 -6 -11 -6
-16 0 -5 -4 -8 -10 -6 -5 1 -9 4 -8 8 1 3 -9 5 -22 5 -13 0 -23 -2 -22 -5 1
-4 -3 -6 -8 -6 -5 0 -9 4 -7 9 2 5 -3 4 -11 -2 -8 -7 -16 -9 -19 -7 -3 3 -5
-4 -4 -17 1 -17 -4 -23 -19 -23 -15 0 -20 6 -19 23 1 13 -1 20 -4 17 -3 -2
-11 0 -18 6 -8 7 -14 7 -19 -1 -4 -6 -3 -9 2 -8 4 2 9 -2 11 -7 1 -6 -10 -10
-25 -10 -23 0 -28 4 -27 23 1 13 -1 20 -5 17 -3 -4 -6 -12 -6 -18 0 -7 -13
-12 -30 -12 -20 0 -30 5 -30 15 0 8 -4 15 -10 15 -5 0 -17 4 -25 9 -10 6 -9 2
3 -11 10 -12 14 -24 9 -27 -6 -3 -12 0 -15 8 -5 12 -33 15 -44 6 -2 -2 -7 -3
-12 -4 -5 0 -13 -4 -17 -8 -4 -4 -14 -2 -22 5 -13 10 -14 9 -7 -3 6 -8 10 -19
10 -25 0 -5 16 -10 37 -10 30 -1 36 2 33 17 -2 10 0 20 6 23 9 6 14 -10 9 -30
-8 -38 -8 -45 1 -50 5 -4 9 0 9 7 1 8 4 7 10 -4 11 -17 34 -19 37 -3 1 6 -6 9
-15 7 -13 -2 -13 0 3 10 11 7 31 13 45 14 14 1 25 2 25 4 0 1 12 3 27 4 16 2
28 -1 28 -6 0 -4 -6 -9 -12 -9 -7 -1 -17 -2 -23 -4 -5 -1 -23 -3 -38 -3 -16
-1 -26 -6 -22 -11 5 -9 15 -9 65 4 11 3 28 7 38 9 9 2 22 6 27 8 6 1 11 -2 13
-7 2 -11 -1 -12 -45 -14 -22 -1 -25 -3 -13 -11 11 -8 7 -9 -16 -5 -28 4 -30 3
-28 -26 1 -21 -1 -27 -9 -21 -15 11 -68 9 -87 -3 -12 -7 -13 -6 -3 7 7 8 10
18 6 21 -3 4 -12 -1 -20 -11 -12 -15 -12 -15 -7 0 3 10 1 16 -8 14 -23 -3 -39
-17 -32 -28 4 -7 2 -8 -5 -4 -9 6 -9 11 1 23 22 27 18 43 -12 43 -26 0 -46 26
-41 54 1 5 -4 5 -11 0 -23 -18 -64 -2 -52 19 4 7 3 8 -2 4 -15 -14 -13 -62 4
-75 16 -12 15 -13 -2 -10 -10 2 -21 -2 -23 -8 -2 -6 8 -10 24 -9 15 1 27 7 26
13 -2 7 2 11 9 9 7 -1 12 3 13 10 0 18 15 28 15 10 0 -9 -5 -19 -10 -22 -6 -4
-7 -11 -4 -17 4 -6 10 -5 15 3 7 11 9 11 9 -1 0 -13 1 -13 10 0 9 13 10 13 10
0 0 -13 1 -13 10 0 5 8 10 10 10 4 0 -6 -7 -17 -15 -24 -11 -9 -12 -16 -5 -25
8 -9 8 -15 0 -20 -6 -4 -9 -3 -8 2 2 4 -2 9 -7 10 -6 1 -9 -6 -9 -17 1 -11 -2
-17 -6 -15 -9 6 -8 25 3 42 4 6 3 14 -3 18 -5 3 -10 0 -10 -7 0 -9 -3 -9 -10
2 -12 20 -31 20 -55 0 -18 -14 -34 -18 -50 -10 -14 7 -72 5 -82 -3 -7 -5 -13
-6 -13 -2 0 4 -6 2 -14 -4 -10 -8 -16 -9 -21 -1 -4 6 -3 9 2 8 4 -2 9 2 11 7
1 6 -6 10 -15 10 -10 0 -19 -6 -19 -12 -1 -7 -3 -16 -4 -20 -1 -5 -1 -12 0
-18 1 -5 -2 -7 -6 -3 -4 4 -13 3 -20 -3 -8 -7 -14 -7 -19 1 -4 6 -3 9 2 8 4
-2 9 2 11 7 1 6 -2 11 -8 11 -5 1 -12 3 -15 4 -13 6 -51 5 -60 -1 -7 -5 -11 1
-11 15 0 12 6 23 12 23 7 0 12 -5 11 -11 -1 -5 7 -10 18 -11 11 0 21 6 21 13
4 36 4 37 14 22 9 -13 10 -13 10 0 0 12 2 12 9 2 7 -11 9 -11 14 2 4 9 2 16
-2 16 -5 0 -8 8 -7 17 3 19 56 28 56 10 0 -6 7 -2 16 9 15 19 15 19 5 -2 -5
-11 -9 -28 -7 -37 2 -18 16 -36 16 -21 0 6 11 10 25 10 14 0 25 -4 25 -8 0 -5
-6 -8 -12 -7 -25 3 -39 -1 -34 -9 4 -7 47 -9 64 -3 1 1 -2 10 -8 21 -7 13 -21
20 -40 20 -17 0 -30 5 -30 10 0 13 47 5 68 -12 13 -11 15 -11 8 2 -4 8 2 4 13
-9 13 -14 21 -18 21 -10 0 12 2 12 9 1 7 -11 9 -11 14 2 4 9 2 17 -3 17 -6 1
-14 3 -20 4 -5 1 -14 3 -20 4 -11 1 -9 29 4 49 5 8 3 11 -5 10 -7 -2 -13 2
-14 9 0 6 -3 14 -6 18 -4 3 -6 -3 -5 -14 0 -11 -3 -21 -9 -21 -5 0 -9 10 -9
21 1 11 -1 17 -5 14 -3 -4 -6 -11 -6 -16 0 -5 -4 -8 -10 -7 -5 2 -9 5 -8 8 1
4 -9 6 -22 6 -13 0 -23 -2 -22 -6 1 -3 -2 -5 -8 -5 -5 0 -9 4 -7 9 2 5 -3 4
-11 -2 -8 -7 -16 -9 -19 -7 -3 3 -5 -4 -4 -17 1 -17 -4 -23 -19 -23 -15 0 -20
6 -19 23 1 13 -1 20 -4 17 -3 -2 -11 0 -18 6 -8 7 -14 7 -19 -1 -4 -6 -3 -9 2
-8 4 2 9 -2 11 -7 1 -6 -10 -10 -25 -10 -23 0 -28 4 -27 23 1 13 -1 20 -5 17
-3 -4 -6 -12 -6 -18 0 -7 -13 -12 -30 -12 -20 0 -30 5 -30 15 0 8 -4 15 -10
15 -5 0 -17 4 -25 9 -10 6 -9 2 3 -11 10 -12 14 -24 9 -27 -6 -3 -12 0 -15 8
-5 12 -33 15 -44 6 -2 -2 -7 -3 -12 -4 -5 0 -13 -4 -17 -8 -4 -4 -14 -2 -22 5
-13 10 -14 9 -7 -3 6 -8 10 -19 10 -25 0 -5 16 -10 37 -10 30 -1 36 2 33 17
-2 10 0 20 6 23 9 6 14 -10 9 -30 -8 -38 -8 -45 1 -50 5 -4 9 0 9 7 1 8 4 7
10 -4 11 -17 34 -19 37 -3 1 6 -6 9 -15 7 -13 -2 -13 0 3 10 11 7 31 13 45 14
14 1 25 2 25 4 0 1 12 3 27 4 16 2 28 -1 28 -6 0 -4 -6 -9 -12 -9 -7 -1 -17
-2 -23 -4 -5 -1 -23 -3 -38 -3 -16 -1 -26 -6 -22 -11 5 -9 15 -9 65 4 11 3 28
7 37 9 10 2 23 6 28 8 6 1 11 -1 13 -7 2 -11 -1 -12 -45 -14 -22 -1 -25 -3
-13 -11 11 -8 7 -9 -16 -5 -28 4 -30 3 -28 -26 1 -21 -1 -27 -9 -21 -15 11
-68 9 -87 -3 -12 -7 -13 -6 -3 7 7 8 10 18 6 21 -3 4 -12 -1 -20 -11 -12 -15
-12 -15 -7 0 3 10 1 16 -8 14 -23 -3 -39 -17 -32 -28 4 -7 2 -8 -5 -4 -9 6 -9
11 1 23 22 27 18 43 -12 43 -26 0 -46 26 -41 54 1 5 -4 5 -11 0 -23 -18 -64
-2 -52 19 4 7 3 8 -2 4 -15 -14 -13 -62 4 -75 16 -12 15 -13 -2 -10 -10 2 -21
-2 -23 -8 -2 -6 8 -10 24 -9 15 1 27 7 26 13 -2 7 2 11 9 9 7 -1 12 3 13 10 0
18 15 28 15 10 0 -9 -5 -19 -10 -22 -6 -4 -7 -11 -4 -17 4 -6 10 -5 15 3 7 11
9 11 9 -1 0 -13 1 -13 10 0 9 13 10 13 10 0 0 -13 1 -13 10 0 5 8 10 10 10 4
0 -6 -7 -17 -15 -24 -11 -9 -12 -16 -5 -25 8 -9 8 -15 0 -20 -6 -4 -9 -3 -8 2
2 4 -1 8 -7 8 -5 0 -9 -8 -9 -17 1 -10 -2 -15 -6 -13 -9 6 -8 25 3 42 4 6 3
14 -3 18 -5 3 -10 0 -10 -7 0 -9 -3 -9 -10 2 -12 20 -31 20 -55 0 -20 -17 -32
-19 -50 -9 -9 5 -71 4 -77 -1 -8 -5 -37 -7 -35 -2 1 4 -3 8 -8 10 -6 1 -10 -2
-10 -7 0 -25 -10 -15 -12 11 0 18 2 25 7 18 5 -8 10 -9 14 -2 7 12 -27 35 -37
26 -3 -3 -3 -18 -1 -32 3 -19 2 -23 -5 -13 -5 8 -8 23 -6 33 2 10 -1 18 -6 18
-6 0 -8 4 -4 9 3 5 2 12 -2 14 -5 3 -9 -24 -10 -60 -2 -46 -8 -72 -20 -86 -10
-11 -12 -17 -5 -13 11 7 12 -6 7 -65 -4 -41 -9 -81 -12 -89 -3 -8 -4 -59 -3
-113 0 -55 -3 -97 -7 -94 -4 3 -7 -807 -5 -1799 l2 -1804 -602 -1 c-864 -2
-1008 -7 -1278 -44 -14 -2 -43 -6 -65 -9 -22 -3 -51 -8 -65 -12 -14 -3 -36 -7
-50 -9 -14 -2 -25 -4 -25 -5 0 -1 -7 -3 -15 -5 -8 -2 -26 -7 -40 -10 -14 -3
-32 -8 -40 -10 -8 -2 -15 -4 -15 -5 0 -2 -20 -7 -45 -12 -8 -2 -21 -7 -27 -11
-7 -5 -13 -6 -13 -2 0 3 -10 0 -22 -7 -13 -7 -26 -13 -30 -14 -5 -1 -11 -3
-15 -4 -5 -1 -11 -2 -16 -1 -4 0 -7 -4 -7 -11 0 -6 -3 -8 -6 -5 -4 3 -16 1
-28 -5 -11 -7 -24 -11 -28 -10 -5 1 -8 -3 -8 -9 0 -5 -4 -7 -10 -4 -5 3 -10 1
-10 -5 0 -6 -4 -9 -9 -6 -5 3 -14 -1 -21 -9 -7 -8 -16 -12 -21 -9 -5 3 -12 -2
-15 -10 -3 -9 -10 -14 -14 -11 -5 3 -11 1 -15 -4 -10 -17 -69 -56 -61 -40 4 7
-1 3 -13 -11 -11 -14 -24 -25 -29 -25 -5 0 -21 -14 -36 -30 -15 -17 -25 -23
-21 -15 4 10 2 9 -8 -2 -8 -10 -17 -14 -21 -10 -4 4 -6 0 -4 -8 2 -8 -3 -14
-9 -13 -7 2 -12 -3 -10 -10 1 -6 -4 -11 -10 -10 -7 2 -12 -3 -10 -10 1 -6 -4
-11 -10 -10 -7 2 -12 -3 -10 -10 1 -6 -4 -11 -11 -9 -8 1 -11 -2 -7 -8 9 -15
-14 -41 -29 -33 -6 3 -8 3 -4 -2 10 -11 -11 -47 -23 -40 -5 4 -9 3 -8 -2 4
-16 -13 -43 -24 -36 -5 3 -7 1 -3 -5 8 -13 -33 -84 -45 -76 -5 3 -6 -3 -2 -12
4 -12 3 -15 -5 -10 -8 5 -10 1 -5 -10 4 -12 3 -15 -5 -10 -8 5 -10 1 -5 -10 4
-12 3 -15 -5 -10 -8 5 -10 1 -5 -10 4 -12 3 -15 -5 -10 -8 5 -10 1 -5 -10 4
-12 3 -15 -5 -10 -8 5 -10 1 -5 -10 4 -12 3 -15 -5 -10 -8 5 -10 1 -5 -10 5
-13 3 -15 -7 -9 -9 5 -11 4 -6 -4 10 -15 -15 -82 -27 -74 -6 3 -7 1 -3 -5 8
-14 -3 -64 -14 -57 -4 2 -5 -7 -2 -22 3 -16 1 -24 -5 -20 -6 4 -8 -4 -5 -20 3
-14 1 -23 -4 -20 -5 3 -9 -9 -9 -26 0 -21 -4 -31 -13 -29 -8 1 -11 -2 -7 -7 7
-12 -16 -181 -24 -176 -3 2 -4 -19 -2 -47 2 -28 -2 -55 -8 -61 -6 -6 -11 -40
-11 -75 0 -35 -3 -61 -7 -59 -5 3 -7 -49 -5 -115 2 -76 -1 -125 -7 -131 -13
-13 -15 -463 -3 -471 5 -3 12 -87 15 -188 4 -100 12 -187 17 -192 6 -6 10 -26
10 -46 0 -40 27 -217 37 -240 3 -8 16 -55 29 -103 101 -385 356 -675 729 -828
236 -98 630 -159 1019 -159 75 0 135 -3 133 -7 -8 -13 1829 3 1988 16 143 12
278 27 327 37 17 3 28 1 28 -5 0 -6 -8 -8 -18 -5 -10 4 -13 3 -6 -3 6 -4 10
-16 8 -26 -1 -9 2 -15 6 -12 5 3 8 -10 6 -29 -3 -27 0 -33 13 -31 9 2 17 4 19
5 1 2 16 4 32 5 17 1 32 4 35 5 3 1 14 4 25 5 11 1 22 4 25 5 3 1 14 4 25 5
11 1 22 4 25 5 3 1 14 4 25 5 11 1 22 4 25 5 3 1 10 4 15 5 6 1 13 4 18 5 4 1
10 2 15 1 4 0 7 4 7 9 0 6 -11 8 -24 6 -20 -4 -24 -1 -19 12 4 15 3 15 -6 2
-9 -13 -11 -13 -11 3 0 9 7 17 15 17 8 0 15 -6 15 -13 0 -8 10 -13 22 -13 13
1 22 -4 21 -10 -1 -7 12 -18 30 -25 18 -7 40 -19 50 -27 9 -8 17 -11 17 -7 0
5 9 -1 20 -13 11 -12 32 -25 45 -28 14 -3 25 -10 25 -15 0 -5 7 -9 15 -9 22 0
77 -29 95 -51 9 -9 29 -19 45 -22 41 -7 82 -23 90 -36 3 -6 14 -11 24 -11 10
0 24 -7 31 -15 7 -8 18 -15 24 -14 27 3 47 -2 41 -10 -3 -6 3 -9 12 -8 23 1
206 -63 214 -76 4 -5 12 -6 18 -2 7 4 23 -1 37 -10 13 -9 29 -13 35 -10 5 4
21 0 34 -9 13 -9 32 -15 42 -14 30 4 113 -14 113 -23 0 -5 22 -9 48 -9 27 0
52 -3 56 -8 7 -7 42 -11 95 -12 13 0 29 -4 35 -9 6 -4 26 -7 44 -6 17 1 32 -1
32 -5 0 -3 26 -6 58 -6 31 0 161 -1 287 -3 127 -1 238 0 248 4 10 4 36 5 57 2
23 -3 43 -1 46 5 4 6 24 8 45 5 21 -3 39 -1 41 4 2 5 30 10 63 11 33 2 63 6
66 11 3 4 27 8 52 9 26 0 47 4 47 8 0 8 86 25 109 21 8 -1 17 2 20 8 4 6 20
12 37 15 16 2 36 6 44 9 50 20 247 81 258 80 6 0 12 3 12 9 0 5 5 6 10 3 6 -3
10 -2 10 4 0 6 7 8 15 5 8 -4 15 -1 15 6 0 6 5 8 10 5 6 -3 10 -1 10 5 0 6 5
8 10 5 6 -3 17 1 25 9 9 8 23 12 32 9 10 -4 14 -2 10 4 -8 12 20 26 34 17 5
-3 9 -1 9 5 0 10 38 27 52 23 5 -1 8 2 8 8 0 5 7 6 17 3 10 -4 14 -2 10 4 -6
9 89 60 104 56 4 -1 10 4 13 13 3 8 2 12 -4 9 -6 -4 -10 14 -10 47 0 29 -4
130 -10 223 -21 333 -37 518 -70 773 -6 40 -10 76 -10 80 0 4 -5 0 -10 -8 -7
-10 -10 -11 -10 -2 0 7 7 15 15 18 14 6 13 8 -2 21 -10 8 -12 11 -3 7 8 -4 4
6 -10 22 -14 15 -17 22 -7 15 15 -12 17 -12 11 4 -5 11 -4 16 3 12 5 -3 10 0
10 7 0 7 -6 13 -13 13 -7 0 -11 -3 -9 -7 2 -3 -7 -6 -21 -6 -18 0 -24 5 -24
23 0 17 -4 21 -17 16 -10 -4 -14 -2 -9 5 3 6 2 13 -3 17 -6 3 -8 -6 -5 -21 3
-16 1 -23 -6 -19 -6 4 -7 -1 -3 -11 4 -10 2 -15 -4 -11 -5 3 -10 0 -10 -8 0
-15 17 -15 30 0 5 6 7 4 4 -5 -2 -9 -15 -15 -31 -14 -18 0 -25 -4 -21 -13 2
-8 0 -11 -5 -8 -6 3 -10 -1 -10 -10 0 -9 5 -13 11 -9 8 4 8 0 0 -15 -14 -25
-23 -28 -14 -4 5 12 3 14 -7 8 -9 -6 -12 -4 -8 6 22 53 22 54 7 43 -8 -6 -29
-9 -46 -7 -18 1 -33 -2 -33 -8 0 -5 5 -7 11 -3 8 5 8 1 0 -14 -8 -15 -8 -21 2
-25 6 -2 16 5 22 16 14 28 28 22 30 -14 2 -18 0 -28 -4 -23 -3 5 -19 10 -34
11 -26 2 -27 0 -16 -15 10 -12 7 -12 -9 3 l-23 19 5 -26 c3 -16 0 -25 -7 -24
-7 1 -12 4 -12 7 0 3 -7 14 -15 25 -14 18 -14 18 3 5 17 -14 18 -13 15 5 -2
11 2 18 9 17 8 -2 10 4 7 15 -5 14 -4 15 5 2 13 -18 15 -1 2 19 -7 11 -10 9
-16 -8 -3 -12 -11 -18 -17 -15 -7 4 -8 2 -4 -4 7 -12 -9 -16 -53 -12 -17 1
-21 -2 -15 -12 6 -10 5 -11 -8 -1 -8 7 -19 9 -23 5 -5 -4 -5 -1 -1 6 4 6 2 12
-4 12 -6 0 -8 5 -4 12 5 7 3 8 -5 4 -7 -5 -10 -15 -6 -23 5 -14 3 -14 -12 -2
-13 11 -15 11 -9 1 11 -18 20 -79 10 -69 -4 4 -8 15 -9 25 0 9 -5 18 -10 19
-10 1 -10 0 0 -32 4 -14 2 -12 -8 5 -11 18 -12 30 -5 43 5 10 7 21 5 24 -3 2
-8 -5 -12 -16 -3 -12 -11 -19 -16 -16 -5 4 -9 2 -9 -4 0 -5 5 -13 10 -16 6 -3
10 -12 10 -18 0 -7 -4 -6 -10 3 -8 12 -10 10 -10 -10 0 -17 -3 -21 -9 -12 -4
7 -7 29 -6 48 3 34 2 35 -16 18 -10 -9 -19 -14 -19 -9 0 4 -6 2 -13 -4 -8 -6
-18 -7 -22 -3 -5 4 -5 1 -1 -6 6 -10 11 -10 22 -1 11 9 14 8 14 -2 0 -12 2
-12 9 -1 7 11 9 11 14 -1 3 -8 0 -20 -6 -27 -9 -10 -9 -11 1 -5 11 6 12 3 3
-14 -13 -24 -23 -28 -14 -6 3 9 2 15 -3 14 -23 -4 -35 2 -28 14 5 8 2 8 -9 -2
-15 -12 -21 -9 -19 10 1 3 -6 6 -13 6 -10 0 -12 -4 -5 -12 5 -7 7 -15 4 -18
-4 -3 -14 3 -24 15 -13 17 -17 18 -17 5 0 -9 4 -14 9 -11 13 8 9 -10 -6 -32
-12 -17 -13 -21 -1 -21 8 0 14 3 13 6 0 3 0 12 1 20 1 16 16 5 16 -12 0 -5 7
-12 15 -14 10 -3 11 -2 4 4 -9 6 -9 11 0 18 13 12 31 13 43 2 4 -5 3 -8 -2 -7
-21 5 -35 -1 -32 -12 1 -8 -12 -13 -36 -14 -41 -1 -55 10 -38 29 7 9 7 17 -1
27 -8 13 -9 13 -5 0 3 -9 -1 -24 -8 -33 -11 -15 -13 -15 -18 -2 -4 8 -13 12
-22 9 -11 -5 -14 -2 -9 12 5 16 4 16 -5 4 -6 -9 -26 -15 -53 -15 -32 0 -43 -4
-43 -15 0 -8 5 -14 12 -13 13 3 12 -22 -2 -34 -4 -4 -5 -3 -2 3 4 7 0 17 -9
24 -13 12 -14 10 -10 -15 3 -15 2 -24 -2 -20 -4 3 -7 11 -7 17 0 6 -10 15 -23
19 -13 5 -21 5 -18 0 3 -5 -1 -14 -8 -20 -11 -9 -16 -9 -22 0 -4 7 -3 9 4 5 6
-3 13 -2 17 4 3 5 3 10 -2 11 -51 5 -61 3 -62 -11 -2 -37 -5 -49 -13 -44 -4 3
-4 13 2 23 10 19 4 31 -15 31 -12 0 -14 -58 -2 -77 4 -6 2 -15 -4 -19 -7 -4
-10 -3 -6 2 9 16 -19 44 -46 46 -14 1 -23 6 -21 10 3 5 11 5 17 1 7 -3 4 3 -6
14 -22 25 -51 23 -55 -3 -2 -10 -6 -26 -9 -34 -4 -8 -7 -18 -7 -22 -1 -5 -4
-8 -8 -8 -5 0 -10 0 -13 0 -3 0 2 11 10 24 11 16 13 26 6 31 -6 3 -11 3 -11
-1 0 -3 -7 -1 -15 6 -13 11 -14 10 -9 -5 5 -11 4 -16 -3 -12 -5 3 -10 -1 -10
-9 0 -10 4 -11 11 -4 5 5 14 10 19 10 15 0 -12 -27 -32 -33 -14 -3 -17 0 -14
13 3 10 0 21 -6 24 -6 4 -9 1 -5 -7 3 -8 0 -18 -7 -23 -7 -4 -10 -3 -5 4 12
21 -13 22 -27 1 -11 -15 -16 -17 -20 -7 -4 8 -6 7 -6 -5 -1 -15 -5 -16 -21 -7
-11 6 -20 7 -20 3 0 -4 -5 -1 -10 7 -6 9 -10 10 -10 3 0 -6 4 -14 9 -18 6 -3
9 -14 8 -25 -1 -21 -17 -17 -17 5 0 8 -3 16 -7 18 -5 3 -7 -12 -7 -34 1 -21
-3 -42 -9 -46 -6 -4 -7 -1 -2 7 5 8 3 11 -6 8 -8 -3 -24 -2 -35 3 -12 4 -25 5
-29 1 -4 -4 -12 -7 -18 -7 -7 -1 -11 -7 -9 -14 1 -7 -2 -9 -8 -6 -6 4 -9 14
-5 23 3 9 3 13 -1 9 -4 -4 -13 1 -21 11 -13 15 -13 15 -3 -5 7 -16 7 -23 0
-24 -11 -2 -25 -5 -37 -9 -5 -1 -11 -2 -15 -1 -5 0 -8 -5 -8 -11 0 -7 -7 -3
-15 9 -10 15 -22 20 -33 16 -15 -6 -14 -3 3 18 11 13 13 18 4 11 -9 -6 -19 -8
-23 -4 -4 4 -6 0 -4 -8 2 -8 -3 -14 -9 -13 -7 2 -13 -2 -13 -8 0 -6 7 -9 14
-6 10 4 13 1 9 -9 -3 -7 0 -14 7 -14 6 0 9 4 6 9 -3 5 1 11 9 14 21 9 7 -21
-16 -34 -11 -5 -19 -6 -18 -2 3 20 -2 24 -16 13 -11 -9 -12 -16 -5 -25 8 -10
8 -15 -1 -21 -8 -4 -9 -3 -5 4 8 13 4 14 -44 14 -52 0 -54 -2 -29 -23 22 -19
24 -19 31 -2 7 17 8 17 5 -1 -2 -22 -33 -30 -41 -11 -3 8 -18 12 -41 9 -26 -2
-34 0 -29 9 4 7 -3 3 -16 -8 -13 -11 -20 -14 -16 -7 4 6 2 12 -3 12 -6 0 -11
-5 -11 -11 0 -5 -4 -8 -9 -5 -4 3 -7 -5 -6 -18 3 -25 -19 -31 -44 -12 -11 8
-13 8 -7 -1 4 -7 2 -14 -3 -14 -14 -2 -30 -6 -33 -9 -2 -1 -11 -3 -20 -5 -14
-3 -15 0 -5 16 6 10 14 15 17 11 8 -11 30 -13 30 -2 0 6 -7 10 -16 10 -8 0
-13 4 -9 9 3 5 0 13 -6 17 -7 4 -9 3 -6 -3 8 -13 -27 -46 -38 -36 -4 5 -6 4
-3 -2 5 -11 -21 -38 -41 -43 -9 -2 -9 3 -1 18 6 11 16 18 21 14 7 -4 6 2 -1
16 -11 21 -12 21 -31 4 -20 -18 -26 -29 -9 -19 6 3 10 1 10 -4 0 -24 -36 -2
-40 24 -1 6 -4 12 -7 15 -2 3 -4 1 -2 -5 4 -17 -12 -45 -23 -39 -5 3 -4 13 4
22 12 15 11 16 -4 4 -14 -11 -15 -17 -5 -33 10 -16 9 -21 -3 -29 -14 -9 -13
-11 10 -14 14 -1 8 -20 -8 -22 -6 -1 -10 2 -7 6 3 5 1 12 -5 15 -8 5 -8 11 0
20 8 10 8 15 -1 21 -7 4 -9 3 -5 -4 3 -6 2 -13 -4 -17 -5 -3 -10 2 -11 12 0
10 -3 13 -5 6 -3 -7 0 -21 5 -32 8 -14 8 -22 -1 -27 -6 -4 -8 -3 -4 4 3 6 0
17 -8 25 -8 8 -13 17 -11 19 3 3 -2 5 -10 5 -10 0 -14 -6 -10 -14 3 -8 5 -20
5 -26 0 -7 4 -6 10 3 6 9 10 10 10 3 0 -26 -21 -23 -31 5 -10 30 -22 34 -48
18 -9 -6 -12 -5 -7 2 3 5 3 12 -1 15 -5 2 -2 2 5 1 6 -2 12 1 12 6 0 6 -5 10
-11 10 -5 0 -8 4 -4 9 3 6 14 8 25 6 12 -2 18 0 14 6 -3 6 -9 8 -12 5 -3 -3
-11 -1 -19 6 -11 9 -13 8 -11 -3 2 -8 -3 -13 -10 -11 -8 1 -11 -2 -7 -8 4 -6
1 -18 -7 -27 -9 -12 -9 -15 0 -9 6 4 12 2 12 -3 0 -17 -50 -13 -56 4 -4 8 0
22 7 31 7 8 8 14 3 13 -5 -1 -22 -1 -39 0 -24 1 -27 3 -15 12 13 9 13 10 0 6
-8 -2 -14 -11 -14 -20 1 -9 -5 -18 -13 -22 -12 -4 -14 1 -10 22 5 26 4 26 -9
8 -9 -12 -14 -14 -14 -5 0 9 -4 8 -14 -5 -7 -10 -26 -20 -42 -21 -16 -2 -23
-1 -16 2 6 3 12 10 12 15 0 6 -5 7 -12 3 -8 -5 -9 -1 -5 12 7 18 7 18 -8 0
-14 -18 -20 -15 -16 7 1 5 -3 6 -9 2 -5 -3 -10 -1 -10 6 0 7 -3 9 -6 6 -4 -4
-1 -13 6 -21 6 -9 10 -21 7 -28 -3 -8 -6 -6 -6 5 -1 10 -5 15 -11 12 -5 -3
-10 4 -11 17 -1 23 -1 23 -10 -2 -8 -24 -8 -24 -7 5 1 53 -1 62 -11 47 -4 -7
-6 -24 -3 -38 4 -22 1 -25 -21 -22 -15 2 -30 8 -34 13 -4 4 -2 5 5 1 7 -4 12
-1 12 8 0 19 -11 20 -29 3 -10 -10 -12 -9 -9 3 2 9 -5 14 -19 15 -36 0 -35 11
2 11 18 0 31 -5 28 -10 -3 -5 -1 -6 6 -2 6 4 20 2 29 -5 9 -7 14 -9 10 -5 -4
5 -2 16 4 25 10 13 10 14 -1 4 -16 -14 -44 -6 -34 11 4 6 -1 5 -10 -3 -16 -13
-22 -8 -17 14 1 5 -7 2 -17 -8 -18 -16 -20 -16 -38 1 -18 16 -18 16 -6 0 10
-14 11 -18 1 -18 -10 0 -9 -4 1 -17 12 -16 11 -16 -8 0 -21 18 -22 18 -34 -1
-12 -19 -14 -19 -26 -4 -13 15 -13 14 -8 -8 5 -19 4 -22 -4 -10 -9 13 -11 13
-11 -2 0 -9 -4 -20 -10 -23 -5 -3 -7 0 -4 9 8 22 -15 61 -29 47 -7 -7 -14 -5
-24 7 -10 13 -12 14 -8 2 4 -12 -1 -16 -20 -16 -15 0 -25 6 -25 14 0 12 -3 12
-15 2 -8 -7 -14 -22 -14 -34 2 -20 2 -20 6 2 2 12 8 20 13 17 5 -3 7 -13 4
-23 -4 -10 -3 -13 3 -6 4 6 16 10 26 8 9 -1 15 1 12 5 -2 4 2 8 10 8 10 0 12
-4 5 -12 -5 -7 -7 -15 -4 -18 4 -3 -6 -4 -21 -1 -20 3 -25 1 -19 -8 6 -10 5
-10 -7 -1 -8 6 -18 12 -24 12 -5 0 -12 10 -14 23 -3 22 -4 21 -17 -7 -8 -17
-12 -21 -9 -10 4 17 2 16 -16 -5 -11 -14 -18 -20 -15 -13 4 7 -1 9 -14 6 -11
-3 -20 -10 -20 -15 0 -5 -5 -6 -12 -2 -6 4 -9 3 -6 -2 3 -5 0 -15 -8 -22 -8
-7 -14 -9 -14 -5 0 4 -5 0 -11 -10 -6 -9 -14 -15 -20 -12 -5 3 -6 -1 -3 -10 6
-14 8 -14 19 1 9 14 14 14 20 4 5 -8 4 -11 -3 -6 -5 3 -12 1 -14 -6 -2 -6 -12
-12 -21 -14 -11 -1 -15 2 -10 9 3 7 -3 3 -15 -7 -23 -20 -31 -42 -10 -30 7 5
8 3 4 -5 -5 -7 -11 -10 -14 -7 -3 3 -12 0 -21 -7 -14 -11 -15 -10 -2 8 8 11 2
8 -13 -8 -15 -15 -32 -24 -39 -21 -7 4 -9 4 -5 -1 4 -4 -4 -16 -17 -27 -14
-11 -25 -27 -26 -36 0 -11 -2 -12 -6 -4 -9 22 -33 13 -33 -14 0 -14 -4 -23 -8
-20 -5 3 -14 -4 -22 -14 -8 -10 -18 -16 -24 -13 -6 4 -5 -1 3 -11 12 -14 12
-19 1 -29 -10 -10 -11 -9 -5 3 6 11 3 10 -11 -2 -14 -14 -15 -20 -6 -30 17
-17 15 -29 -3 -22 -8 4 -13 10 -10 15 6 9 -53 55 -66 52 -5 -2 -8 3 -6 10 1 6
-4 11 -11 9 -8 -1 -11 2 -8 7 6 9 -11 28 -29 31 -5 1 -9 6 -8 11 2 5 0 8 -5 7
-7 -2 -162 151 -162 160 0 2 -23 30 -52 61 -179 196 -378 503 -503 774 l-48
107 -1211 2 c-1184 3 -1212 3 -1251 23 -76 38 -141 116 -166 200 -7 24 -12
1879 -5 1940 1 11 5 26 10 33 4 6 4 17 0 24 -5 7 -3 8 6 3 10 -6 12 -4 7 9 -4
9 -3 15 2 12 8 -5 25 22 21 32 -2 5 39 41 67 59 13 8 21 19 18 23 -3 5 3 9 12
9 10 -1 36 6 58 15 35 13 192 15 1330 16 l1291 0 3 153 c2 145 6 193 18 241 3
11 8 57 10 101 3 44 9 85 15 92 11 13 7 223 -4 223 -4 0 -7 115 -7 255 0 140
4 255 8 255 4 0 8 17 9 38 1 20 5 55 9 77 4 22 7 45 8 50 2 19 17 70 25 90 77
176 96 214 139 271 33 44 171 154 171 136 0 -4 4 -2 8 3 4 6 35 22 70 35 34
14 62 28 62 32 0 5 11 8 25 8 14 0 25 5 25 10 0 6 5 10 11 10 11 0 84 31 142
60 22 11 45 20 53 20 8 0 14 5 14 10 0 6 6 10 13 10 6 0 24 6 38 14 14 7 39
17 55 21 16 5 31 9 34 10 3 1 20 6 38 10 17 4 32 11 32 16 0 5 7 9 17 9 9 0
45 13 80 30 34 17 68 30 74 30 5 0 8 4 5 9 -4 5 -1 11 5 13 12 4 1 38 -13 38
-5 0 -6 -5 -2 -11 4 -8 0 -8 -15 0 -23 13 -27 26 -9 37 8 5 9 2 4 -11 -5 -14
-4 -16 7 -6 11 9 17 8 27 -4 7 -8 17 -12 23 -8 6 4 8 0 4 -10 -5 -14 -3 -15
21 -4 15 6 36 17 48 24 11 7 24 10 27 6 4 -3 7 6 7 22 0 39 21 103 35 109 17
6 29 -83 16 -117 -7 -17 -7 -47 -1 -84 6 -32 10 -62 10 -68 0 -5 6 -1 12 9 6
11 10 48 10 82 -1 35 3 66 9 70 15 9 41 -17 36 -38 -3 -10 0 -21 5 -25 7 -4 8
-1 3 7 -5 8 -4 11 2 7 6 -4 13 -16 16 -27 3 -11 2 -18 -2 -16 -4 3 -13 -9 -20
-25 -12 -26 -11 -36 4 -72 29 -69 49 -107 57 -107 5 0 8 -7 8 -15 0 -8 5 -15
11 -15 5 0 8 -4 5 -9 -4 -5 0 -12 6 -15 7 -3 -4 -4 -24 -3 -21 0 -43 -4 -48
-9 -12 -12 -3 -44 11 -44 5 0 9 -16 9 -35 0 -19 -4 -35 -9 -35 -16 0 -61 53
-61 71 0 11 -7 19 -15 19 -22 0 -18 -27 9 -63 35 -46 47 -82 52 -161 3 -49 1
-72 -8 -77 -7 -4 -14 -29 -15 -56 -2 -27 -9 -51 -17 -55 -8 -4 -19 -32 -25
-60 -29 -132 -33 -140 -47 -120 -10 14 -14 64 -14 178 -2 171 -17 268 -51 315
-10 15 -19 34 -19 42 0 8 -14 30 -31 48 l-31 34 6 -48 6 -47 -35 0 c-18 0 -37
4 -40 10 -9 14 -35 12 -35 -2 0 -7 13 -28 29 -46 27 -30 29 -37 24 -92 -4 -42
-2 -64 8 -76 7 -9 14 -44 15 -79 2 -64 14 -115 41 -172 14 -28 14 -36 -2 -77
-12 -31 -16 -58 -11 -83 3 -21 8 -54 11 -73 3 -19 10 -64 16 -100 10 -60 9
-71 -11 -120 -12 -30 -26 -63 -32 -74 -5 -10 -15 -74 -21 -142 -11 -120 -12
-124 -34 -124 -21 0 -22 2 -11 20 10 16 10 24 0 40 -10 17 -8 42 11 143 25
124 27 279 6 302 -5 5 -9 34 -9 66 0 31 -5 70 -11 87 -6 17 -14 52 -17 78 -4
26 -13 49 -20 52 -15 5 -16 -32 -2 -58 12 -23 3 -70 -14 -70 -6 0 -23 19 -37
43 -23 36 -27 56 -31 140 -5 93 -7 100 -35 127 -17 17 -33 44 -37 60 -3 17
-17 47 -31 68 -14 20 -25 45 -25 54 0 10 -7 18 -15 18 -13 0 -15 -9 -9 -52 4
-29 13 -62 20 -73 14 -22 21 -165 9 -207 -6 -23 -2 -33 23 -56 17 -16 43 -55
57 -88 14 -32 36 -72 50 -89 20 -27 24 -45 26 -118 2 -58 -1 -91 -9 -99 -18
-18 -39 16 -47 74 -4 27 -11 50 -16 54 -5 3 -9 24 -9 48 0 35 -9 55 -50 114
-28 40 -54 72 -58 72 -4 0 -15 15 -25 33 -10 18 -41 52 -69 76 -33 29 -60 65
-79 104 -26 56 -27 62 -13 89 21 41 12 60 -28 56 -25 -2 -33 1 -36 16 -2 10 3
23 12 28 17 10 22 63 7 72 -18 12 -41 -7 -41 -33 0 -15 -6 -36 -14 -47 -12
-17 -12 -22 0 -39 8 -10 14 -22 14 -27 0 -14 -28 -9 -34 7 -3 8 -17 15 -31 15
-33 0 -34 -32 0 -72 13 -16 29 -46 35 -66 5 -21 21 -53 35 -72 14 -19 25 -40
25 -48 0 -8 9 -29 19 -46 26 -42 64 -144 57 -155 -3 -4 6 -21 19 -37 17 -20
25 -41 25 -67 0 -23 10 -53 25 -77 47 -74 21 -112 -38 -57 -23 22 -41 51 -53
91 -12 38 -31 71 -52 92 -37 36 -68 36 -57 0 3 -11 8 -37 9 -58 3 -30 53 -131
75 -148 3 -3 15 -22 26 -42 11 -21 22 -38 26 -38 4 0 16 -21 27 -48 11 -26 30
-58 41 -71 13 -15 21 -38 21 -62 0 -21 5 -50 12 -64 8 -18 8 -29 1 -36 -7 -7
-21 3 -44 33 -19 24 -39 49 -46 56 -6 7 -22 30 -34 52 -23 41 -69 70 -113 70
-31 0 -32 -8 -6 -63 25 -51 49 -81 73 -90 9 -3 20 -15 24 -24 9 -26 101 -174
122 -198 10 -11 29 -40 42 -65 13 -25 28 -52 34 -60 6 -8 24 -46 40 -85 16
-38 31 -72 34 -75 3 -3 15 -22 25 -42 11 -21 23 -38 28 -38 4 0 8 -7 8 -15 0
-8 12 -26 26 -40 14 -14 32 -46 41 -70 8 -25 19 -47 24 -51 10 -6 13 -54 3
-54 -21 0 -66 40 -80 70 -9 19 -27 49 -40 67 -13 17 -24 34 -24 38 0 7 -14 24
-47 60 -13 13 -23 27 -23 31 0 4 -11 17 -25 30 -14 13 -25 28 -25 34 0 5 -6
10 -14 10 -24 0 -24 -37 0 -82 13 -24 26 -49 30 -57 7 -14 -16 -33 -49 -38
-11 -2 -17 4 -17 16 0 34 -12 51 -35 51 -13 0 -26 -4 -30 -9 -3 -6 -20 -4 -40
5 l-35 14 0 -30 c0 -16 5 -30 10 -30 6 0 10 -7 10 -15 0 -10 -10 -15 -32 -15
-66 0 -76 -42 -12 -48 15 -1 33 -7 41 -14 12 -10 17 -9 24 3 4 9 17 27 28 40
18 21 22 22 31 9 6 -8 9 -36 8 -63 -3 -43 -1 -47 20 -47 13 0 21 4 18 8 -8 13
28 52 51 56 26 6 41 -27 23 -49 -11 -13 -6 -15 26 -15 58 0 153 -49 201 -104
76 -86 73 -57 73 -814 0 -656 1 -674 19 -669 10 2 25 1 32 -4 7 -4 18 -5 23
-2 17 11 56 9 56 -2 0 -7 3 -7 8 0 4 6 50 11 102 12 172 2 245 7 268 15 14 5
21 4 17 -1 -3 -6 6 -6 25 -1 21 6 30 5 30 -3 0 -8 3 -7 9 2 6 9 11 10 15 2 5
-8 13 -8 26 -1 12 6 21 6 25 1 3 -6 15 -8 28 -5 62 12 127 13 127 1 0 -8 3 -8
8 -2 8 13 22 13 41 1 9 -6 12 -5 8 1 -4 6 30 10 91 10 210 0 826 14 830 18 3
2 13 0 23 -6 11 -5 19 -6 19 -1 0 5 57 10 126 10 70 1 129 3 131 6 3 3 13 2
22 -2 9 -5 27 -7 41 -5 31 4 523 13 688 13 111 0 128 -2 172 -25 28 -14 51
-32 51 -40 1 -8 2 -18 4 -22 12 -44 15 -79 19 -213 3 -85 6 -167 6 -181 0 -18
8 -29 25 -37 37 -17 38 -17 90 32 26 25 55 51 65 58 9 7 43 32 73 56 31 23 60
42 66 42 5 0 11 4 13 8 7 18 259 162 283 162 4 0 21 6 38 14 109 48 237 89
291 93 33 3 65 9 70 14 6 5 22 9 37 9 15 0 30 4 33 9 4 5 30 13 59 17 28 4 54
8 57 9 3 0 10 3 16 7 21 13 218 20 279 9 107 -19 125 -23 125 -32 0 -5 6 -9
13 -9 12 0 12 -17 0 -102 -66 -484 -281 -1007 -584 -1418 -30 -41 -59 -82 -63
-90 -14 -25 9605 9599 9684 9690 41 47 78 84 83 82 5 -1 6 1 3 6 -3 5 8 24 23
43 16 19 58 75 93 126 36 51 69 89 73 85 5 -4 6 -2 2 3 -6 11 37 88 45 80 2
-3 5 1 5 8 1 19 59 118 66 112 4 -3 5 -2 3 1 -3 4 20 56 51 118 156 309 262
659 315 1036 21 148 17 662 -5 815 -76 507 -241 942 -512 1345 -455 676 -1162
1158 -1950 1330 -229 50 -347 62 -635 65 -151 2 -291 1 -310 -1z m-7188 -7296
c-25 -29 -24 -68 3 -80 16 -7 21 -17 19 -32 -4 -21 -4 -21 7 1 12 22 40 26 56
8 5 -4 3 -5 -3 -2 -9 5 -36 -33 -38 -55 -1 -3 -4 -9 -8 -13 -10 -10 -4 17 10
42 17 30 14 42 -3 19 -8 -11 -25 -21 -37 -22 -13 -2 -17 0 -10 2 6 3 12 15 12
25 0 11 -4 17 -10 14 -5 -3 -10 -1 -10 6 0 27 -14 -3 -16 -35 -3 -32 -1 -34
24 -30 19 3 23 2 13 -5 -8 -5 -11 -16 -8 -26 4 -9 3 -14 -3 -10 -6 3 -10 13
-10 21 0 8 -5 12 -10 9 -6 -4 -8 -10 -6 -14 3 -4 -7 -7 -22 -6 -23 1 -27 6
-25 28 1 15 -3 27 -10 27 -8 0 -7 3 2 9 9 6 10 11 2 15 -6 4 -15 -4 -22 -21
-12 -32 -4 -77 13 -67 6 4 8 3 4 -4 -3 -6 -2 -13 4 -17 5 -3 10 -1 10 6 0 7 3
9 6 6 4 -4 2 -13 -4 -20 -7 -8 -11 -16 -9 -18 1 -2 1 -4 0 -4 -1 0 -2 5 -3 10
-2 6 -11 21 -21 34 -11 13 -19 33 -20 45 -1 19 -2 18 -10 -4 l-8 -25 2 25 c1
14 8 24 15 23 15 -4 15 -1 -4 33 l-16 29 7 -29 c5 -25 4 -28 -9 -17 -8 7 -12
20 -9 29 4 15 3 15 -6 2 -9 -13 -11 -13 -11 0 0 13 -2 13 -9 1 -5 -8 -6 -21
-3 -30 5 -14 4 -14 -11 -2 -12 9 -14 17 -7 26 5 6 8 14 5 17 -3 2 12 4 33 3
38 -2 66 11 56 26 -6 11 37 70 47 63 4 -2 10 0 14 6 4 6 10 8 15 5 5 -3 15 3
22 15 13 20 13 20 19 -2 3 -14 0 -30 -9 -40z m-2842 -659 c0 -14 -20 -20 -20
-7 0 8 -4 7 -10 -4 -7 -11 -19 -15 -35 -12 -16 3 -25 0 -25 -8 0 -9 -3 -8 -10
2 -6 9 -10 10 -10 3 0 -17 17 -25 25 -13 5 8 11 8 20 0 8 -7 15 -7 19 -1 3 5
14 8 24 6 9 -1 23 3 31 9 12 9 13 7 7 -9 -5 -15 -4 -17 5 -8 13 13 3 37 -12
28 -5 -3 -6 1 -3 10 5 13 9 12 25 -6 10 -12 16 -27 12 -33 -3 -6 -2 -7 3 -3 5
5 9 16 9 24 0 9 8 17 18 19 14 2 16 -1 7 -11 -9 -10 -9 -19 -1 -32 8 -12 11
-13 9 -3 -2 8 0 15 4 15 3 0 15 8 25 18 16 14 20 15 20 2 0 -8 -3 -13 -5 -10
-7 6 -32 -15 -32 -27 0 -5 5 -6 10 -3 6 3 10 -2 10 -12 0 -15 2 -16 10 -3 5 8
10 10 10 4 0 -7 9 -14 19 -17 22 -5 22 -26 1 -53 -9 -11 -10 -15 -3 -10 18 10
57 17 49 8 -4 -4 -13 -7 -19 -7 -16 0 -22 -64 -8 -78 13 -13 15 -30 2 -23 -8
5 -8 -15 -1 -34 1 -3 2 -9 1 -13 -1 -5 3 -6 8 -3 5 4 8 15 6 26 -2 13 0 18 7
14 7 -4 6 0 -1 14 -8 16 -7 23 7 33 15 13 16 12 3 -3 -7 -10 -9 -18 -3 -18 11
0 11 -18 -1 -37 -5 -8 0 -11 15 -10 13 1 24 -2 25 -8 1 -5 -8 -9 -20 -7 -14 2
-31 -6 -43 -19 -18 -20 -19 -35 -15 -283 1 -143 6 -265 11 -271 14 -19 18 -55
10 -92 -7 -29 -5 -42 7 -55 25 -28 30 -124 8 -148 -10 -11 -24 -20 -32 -20 -8
0 -13 -12 -13 -35 0 -39 -21 -55 -44 -36 -10 8 -16 9 -21 1 -3 -5 -14 -10 -23
-10 -10 0 -26 -9 -35 -21 -18 -20 -17 -21 2 -38 12 -10 21 -23 21 -30 0 -6 3
-10 8 -10 26 4 34 -3 30 -26 -3 -14 -1 -28 5 -32 5 -3 7 -1 3 5 -3 6 -2 13 3
16 5 4 8 -2 6 -11 -2 -10 -4 -18 -5 -18 -1 0 -3 -8 -5 -17 -2 -9 4 -23 13 -30
13 -11 14 -11 7 2 -8 13 -7 13 11 0 10 -8 22 -19 26 -25 4 -5 22 -11 40 -12
21 -3 42 -14 58 -32 24 -27 30 -29 170 -40 79 -7 152 -17 161 -22 10 -5 26 -9
36 -9 30 0 54 -23 59 -55 12 -95 25 -181 28 -191 3 -7 31 -10 83 -7 l78 4 -33
-17 c-18 -9 -45 -30 -60 -46 -15 -15 -34 -28 -43 -28 -12 0 -15 -7 -11 -25 2
-14 8 -22 13 -19 5 3 9 -1 9 -9 0 -8 8 -24 19 -35 11 -14 16 -31 13 -47 -5
-27 13 -80 35 -107 13 -15 21 -15 88 -5 18 3 16 -41 -4 -74 -12 -19 -21 -44
-21 -56 0 -12 -5 -25 -11 -29 -6 -4 -8 -20 -4 -40 5 -29 3 -34 -14 -34 -11 0
-22 -4 -25 -9 -3 -5 -21 -12 -39 -15 l-33 -6 0 -104 c1 -94 3 -103 18 -95 12
6 28 2 55 -13 30 -18 54 -23 118 -24 90 -1 115 -8 115 -34 0 -21 31 -80 43
-80 4 0 7 -6 7 -13 0 -8 9 -24 19 -36 17 -19 24 -21 53 -12 18 5 27 10 21 10
-19 1 -16 28 4 35 14 6 14 8 -3 21 -10 8 -28 15 -39 15 -19 1 -19 2 3 12 12 6
22 17 22 25 0 7 5 13 11 13 5 0 7 6 3 13 -10 15 25 -11 46 -35 8 -10 33 -20
55 -24 22 -3 43 -9 47 -12 13 -13 17 -112 5 -112 -7 0 -6 -4 3 -10 13 -9 13
-10 0 -10 -12 0 -12 -2 -2 -9 11 -7 11 -9 -1 -14 -11 -4 -12 -15 -7 -49 4 -23
9 -47 10 -53 5 -12 -10 -96 -19 -110 -3 -5 -6 -12 -7 -15 -1 -3 -5 -15 -9 -27
-4 -12 -7 -25 -6 -28 0 -3 -12 -17 -28 -32 -15 -16 -26 -34 -23 -42 3 -10 0
-11 -9 -5 -11 6 -12 5 -2 -8 7 -8 9 -19 5 -24 -4 -5 -3 -6 2 -2 5 4 16 2 24
-5 13 -9 14 -9 8 1 -4 6 -2 12 3 12 18 0 12 -24 -9 -38 -11 -7 -20 -20 -19
-30 0 -13 2 -12 9 6 13 32 20 27 10 -8 -5 -17 -5 -30 0 -30 5 0 6 -7 3 -17 -4
-11 -3 -14 5 -9 7 4 12 2 12 -4 0 -6 5 -8 12 -4 8 5 9 2 5 -10 -4 -9 -3 -15 2
-12 5 3 14 -1 21 -9 7 -8 18 -15 26 -15 7 0 11 -8 9 -20 -2 -11 2 -20 8 -20 8
0 8 -3 2 -8 -13 -10 -17 -83 -4 -98 7 -8 6 -14 -1 -19 -12 -8 -4 -25 13 -25 7
0 6 4 -3 10 -8 5 -10 10 -4 10 16 0 24 -11 16 -24 -11 -18 -11 -77 1 -69 5 3
7 2 4 -4 -9 -15 -53 -8 -49 8 2 8 0 10 -4 6 -12 -12 -14 -38 -1 -30 7 4 8 0 4
-13 -7 -19 -7 -19 8 0 8 11 18 17 21 13 4 -4 1 -14 -7 -24 -9 -11 -10 -14 -1
-9 7 4 12 1 12 -8 0 -9 0 -18 0 -21 0 -3 -2 -4 -4 -2 -2 1 -14 -7 -27 -18 -20
-18 -22 -18 -16 -2 5 12 3 16 -5 11 -7 -5 -9 -2 -5 9 4 12 2 14 -10 10 -11 -4
-14 -3 -9 6 4 7 3 10 -5 9 -6 -2 -13 2 -16 8 -5 14 29 13 39 -1 5 -6 8 -6 8 2
0 6 -5 15 -10 18 -6 4 -8 10 -5 15 3 5 1 11 -4 15 -6 3 -8 -3 -6 -15 2 -11 0
-20 -6 -20 -5 0 -9 8 -10 18 0 15 -1 15 -8 -2 -6 -16 -8 -17 -13 -4 -4 9 -2
21 3 27 6 8 5 8 -3 1 -8 -6 -17 -5 -27 3 -14 10 -14 10 -4 -4 7 -9 9 -20 5
-24 -4 -5 -1 -5 5 -1 9 5 12 -1 9 -21 -2 -15 -1 -19 1 -9 4 15 7 16 13 6 5 -8
4 -22 -1 -32 -16 -30 1 -95 22 -83 14 9 11 27 -3 19 -10 -6 -10 -4 0 7 17 18
15 34 -2 20 -12 -10 -14 -9 -11 6 2 10 4 24 4 32 1 16 16 5 16 -12 1 -7 6 -11
12 -10 7 2 11 -10 10 -30 -2 -26 2 -32 18 -31 11 0 19 6 17 13 -1 7 1 10 6 7
5 -3 8 5 7 17 -2 18 2 22 24 22 16 1 28 -5 28 -12 0 -6 -5 -11 -11 -10 -5 1
-10 -2 -11 -8 0 -5 -3 -14 -6 -20 -11 -20 8 -78 22 -70 5 4 5 13 0 24 -6 10
-6 23 -1 31 5 8 6 18 3 24 -3 5 -1 6 5 2 8 -5 9 -13 3 -24 -9 -19 -4 -45 9
-37 10 6 7 -21 -3 -31 -13 -14 -7 -21 16 -20 17 1 21 -4 20 -22 -2 -16 1 -21
10 -16 7 5 6 0 -3 -11 -9 -11 -10 -16 -2 -11 6 4 12 2 12 -3 0 -6 -7 -11 -15
-11 -9 0 -15 9 -15 23 0 12 -5 29 -11 37 -8 11 -9 8 -4 -15 3 -16 9 -39 12
-50 5 -18 4 -18 -11 -6 -9 7 -16 19 -15 25 1 6 1 22 0 36 -1 19 -3 22 -10 10
-6 -8 -8 -17 -5 -21 2 -4 -2 -9 -10 -12 -12 -5 -13 -1 -1 26 10 25 11 36 1 49
-11 15 -13 15 -23 -1 -7 -11 -8 -23 -2 -32 7 -11 9 -11 9 4 0 9 5 17 10 17 7
0 6 -8 -2 -22 -7 -13 -12 -26 -13 -30 -1 -20 -11 -13 -13 9 -3 37 -12 42 -12
7 0 -16 5 -36 10 -44 7 -11 10 -11 10 -2 0 7 5 10 10 7 6 -4 7 -11 4 -17 -4
-7 -2 -8 5 -4 6 4 9 12 6 17 -4 5 -2 9 3 9 12 0 23 -27 14 -33 -4 -2 -2 -2 5
-1 7 2 15 -1 18 -7 4 -5 11 -7 16 -4 5 4 9 1 9 -4 0 -6 -4 -11 -10 -11 -5 0
-9 -3 -8 -7 3 -17 -15 -42 -26 -36 -6 4 -5 -1 3 -10 13 -16 15 -16 32 -2 11
11 16 28 15 50 -2 19 0 32 5 30 4 -3 13 3 19 12 10 17 10 16 8 -2 -2 -12 2
-19 10 -17 8 1 11 -2 7 -8 -5 -8 -11 -8 -19 -1 -10 8 -13 4 -13 -19 0 -16 -8
-38 -17 -49 -17 -19 -17 -19 1 -16 10 1 17 8 16 14 -2 6 2 11 7 11 14 0 12
-23 -2 -40 -11 -12 -10 -12 5 -1 24 19 21 2 -8 -41 -14 -20 -21 -39 -16 -42 5
-4 7 -16 5 -29 -4 -20 -4 -20 5 -2 4 11 7 23 4 28 -2 4 1 7 8 7 6 0 9 -8 6
-20 -6 -22 7 -35 23 -25 8 5 7 11 -1 21 -10 12 -10 15 2 12 8 -2 13 2 12 8 -1
6 5 11 13 11 12 0 12 -3 -2 -18 -10 -11 -12 -19 -5 -24 6 -3 11 0 11 7 0 9 3
9 10 -2 6 -9 10 -10 10 -3 0 6 8 11 18 10 10 0 19 -7 19 -14 0 -9 -4 -10 -14
-2 -7 6 -13 10 -14 8 0 -2 -2 -12 -4 -23 -2 -10 -9 -24 -15 -30 -8 -8 -9 -6
-4 7 5 13 2 16 -10 11 -10 -4 -16 -1 -16 7 0 11 -2 11 -9 -1 -6 -8 -7 -18 -4
-24 3 -5 1 -6 -6 -2 -6 4 -9 11 -7 15 3 4 -2 8 -10 8 -10 0 -11 -4 -4 -11 5
-5 10 -16 10 -24 0 -9 -7 -6 -21 9 -20 23 -20 23 1 -8 24 -37 26 -38 36 -21 5
7 2 8 -7 3 -8 -5 -10 -4 -6 0 13 14 34 14 34 -1 0 -7 -3 -11 -7 -9 -3 2 -12
-6 -19 -18 -11 -18 -11 -20 0 -10 17 17 32 17 22 1 -4 -7 -6 -24 -4 -37 2 -15
-1 -21 -8 -16 -6 3 -8 12 -4 18 4 7 -1 6 -10 -2 -11 -8 -14 -18 -8 -25 4 -6 8
-23 7 -38 -1 -14 2 -24 7 -21 5 3 7 14 4 24 -3 12 2 23 14 29 13 8 19 7 19 0
0 -6 6 -8 13 -4 9 6 9 5 0 -8 -17 -20 -4 -31 16 -16 12 10 12 7 -2 -8 -20 -24
-11 -40 12 -21 12 10 12 7 -2 -12 -13 -20 -14 -28 -5 -40 7 -9 8 -13 4 -9 -5
4 -16 2 -24 -5 -13 -10 -14 -9 -7 3 5 8 11 24 12 35 2 15 -1 13 -13 -7 -8 -16
-17 -28 -20 -28 -2 0 0 9 6 20 6 11 7 20 3 20 -4 0 -1 5 7 10 12 7 12 10 1 10
-7 0 -11 6 -7 15 3 8 1 15 -4 15 -10 0 -14 -20 -11 -52 1 -9 -3 -19 -9 -23 -6
-3 -7 -12 -3 -18 10 -16 11 -47 2 -41 -4 2 -10 0 -14 -6 -4 -6 -12 -7 -18 -4
-8 5 -8 3 1 -7 6 -7 12 -19 12 -27 0 -8 -5 -10 -12 -6 -8 5 -7 0 2 -11 9 -11
10 -16 3 -11 -10 5 -13 -3 -14 -31 -1 -51 -6 -74 -18 -86 -6 -6 -11 -21 -11
-33 0 -23 -8 -24 -46 -8 -51 22 -139 126 -161 189 -27 75 -26 72 -4 46 12 -13
21 -19 21 -15 0 5 5 2 10 -6 8 -12 10 -10 10 9 0 13 -13 45 -28 70 -53 86 -95
182 -108 244 -7 34 -21 96 -33 137 -11 41 -21 89 -21 106 0 17 -3 34 -7 38 -7
7 -18 59 -43 206 -5 30 -14 102 -20 160 -10 100 -21 151 -40 195 -5 11 -21 47
-35 80 -15 33 -33 74 -40 90 -7 17 -21 68 -30 115 -10 46 -21 91 -26 100 -4 8
-15 42 -24 75 -9 33 -20 67 -25 75 -4 9 -10 29 -14 46 -4 16 -19 44 -35 63
l-28 33 -64 -12 c-269 -48 -554 -70 -729 -54 -69 6 -135 15 -147 19 -31 10
-40 50 -47 195 -3 69 -12 197 -21 285 -19 197 -32 381 -41 587 -6 127 -4 159
7 170 20 20 79 48 100 48 10 0 21 5 24 10 3 6 20 10 37 10 l30 0 -18 27 c-9
15 -21 32 -26 38 -5 5 -20 24 -33 40 -14 17 -28 39 -31 50 -4 11 -16 30 -27
43 -16 17 -18 25 -9 34 9 9 12 9 13 0 3 -26 4 -31 11 -37 3 -4 5 5 4 20 -3 22
0 26 15 22 35 -9 25 18 -16 43 -60 36 -135 101 -150 130 -14 26 -9 80 6 80 5
0 9 5 9 11 0 5 -6 7 -12 3 -7 -4 -5 2 5 13 12 14 15 23 8 28 -6 3 -11 15 -11
26 0 11 -6 27 -12 35 -7 8 -18 20 -23 27 -28 32 -55 77 -48 77 4 0 3 4 -4 8
-6 4 -13 16 -15 27 -1 11 -7 23 -11 26 -16 12 -23 116 -12 172 6 31 10 63 9
72 -1 8 2 15 7 15 5 0 9 14 9 31 0 28 2 30 18 18 9 -7 14 -9 10 -5 -10 12 22
35 49 36 16 0 25 -8 29 -27 4 -15 18 -36 30 -46 14 -10 21 -24 17 -33 -3 -8 3
-21 13 -30 18 -14 18 -14 -1 -7 -17 6 -18 5 -5 -9 10 -11 19 -13 27 -7 7 7 14
6 18 -1 5 -8 10 -8 20 0 9 7 15 8 19 1 4 -6 14 -7 23 -4 11 4 14 2 9 -5 -4 -7
3 -6 19 2 45 23 131 110 154 153 11 23 25 44 31 48 18 11 12 56 -9 62 -20 5
-48 49 -38 59 8 8 -12 46 -21 40 -4 -2 -13 2 -20 10 -10 11 -6 13 25 11 36 -2
38 0 41 31 4 40 -19 78 -56 95 -35 15 -53 33 -44 43 4 5 -1 2 -11 -5 -15 -12
-17 -12 -11 4 4 11 3 16 -2 13 -5 -4 -18 1 -29 9 -19 15 -19 15 -1 9 14 -5 16
-3 9 6 -12 15 -7 56 9 75 9 11 14 11 26 1 8 -7 18 -11 21 -10 31 18 39 20 51
9 10 -10 12 -9 8 4 -4 11 1 15 18 15 13 0 24 -3 24 -7z m-277 -251 c18 -9 18
-11 -9 -29 -16 -10 -24 -19 -19 -19 6 0 3 -5 -5 -10 -13 -8 -12 -10 3 -10 27
0 2 -40 -26 -41 -20 -1 -20 -2 -2 -6 27 -7 45 -23 45 -39 0 -10 -14 -14 -51
-14 -46 0 -49 1 -35 16 21 21 20 31 -4 37 -11 3 -20 12 -20 21 0 8 -13 22 -30
31 -44 23 -39 68 10 78 34 7 119 -2 143 -15z m-557 -755 c35 -42 39 -52 39
-104 0 -56 -7 -62 -35 -28 -3 4 -14 9 -26 13 -16 5 -23 0 -34 -29 -19 -49 -35
-44 -49 19 -12 55 -4 92 26 124 7 7 13 22 13 33 0 32 25 22 66 -28z m138
-1595 c9 -12 16 -31 16 -41 0 -11 7 -34 16 -53 22 -46 13 -52 -30 -19 -32 24
-36 25 -35 9 0 -11 4 -28 8 -39 9 -20 -3 -54 -23 -67 -8 -6 -8 -8 0 -8 7 0 15
-16 18 -35 4 -19 11 -35 15 -35 5 0 11 -12 14 -27 13 -66 34 -125 55 -152 25
-34 28 -51 10 -51 -9 0 -9 -3 0 -12 7 -7 12 -22 12 -35 0 -13 5 -23 10 -23 6
0 10 -7 10 -15 0 -52 -110 51 -144 135 -16 40 -20 60 -13 63 9 3 8 11 -1 32
-18 39 -29 24 -47 -65 -9 -41 -20 -93 -25 -115 -25 -112 -39 -195 -39 -242 -1
-28 -6 -55 -13 -59 -19 -12 -2 255 23 356 11 47 24 112 28 145 4 33 13 70 21
82 11 18 12 26 1 49 -10 22 -14 25 -21 14 -7 -12 -10 -12 -16 3 -3 9 -16 17
-29 17 -25 0 -35 22 -35 78 0 39 21 43 40 6 9 -17 20 -24 32 -21 10 3 21 1 24
-4 12 -20 23 -7 12 15 -14 31 -4 56 22 56 14 0 20 7 20 21 0 28 18 59 35 59 8
0 21 -10 29 -22z m-358 -770 c7 -24 54 -96 77 -120 39 -39 97 -129 111 -171
31 -92 11 -104 -34 -22 -27 52 -157 235 -172 246 -5 3 -12 25 -15 48 -5 33 -3
41 10 41 9 0 19 -10 23 -22z m3016 -1137 c0 -20 -3 -56 -7 -81 -4 -25 -8 -61
-9 -80 -2 -51 -16 -91 -43 -126 -12 -17 -23 -36 -23 -42 0 -7 -6 -12 -12 -12
-42 -1 -56 -47 -62 -202 -3 -76 -9 -113 -20 -130 -23 -32 -87 -48 -203 -48
-85 0 -103 -3 -103 -15 0 -9 9 -15 25 -15 16 0 25 -6 25 -15 0 -20 -49 -20
-56 0 -3 8 -29 27 -57 43 -29 17 -74 53 -101 81 -46 49 -130 101 -143 88 -12
-13 22 -96 44 -108 26 -14 32 -59 9 -59 -20 0 -30 -38 -16 -55 10 -12 10 -18
-1 -31 -9 -11 -27 -15 -68 -12 l-56 3 -8 40 c-4 22 -10 60 -13 85 -3 25 -9 54
-14 65 -5 11 -14 83 -20 160 -6 77 -12 167 -15 200 -5 65 2 125 13 125 5 0 14
-17 21 -37 8 -21 18 -44 23 -50 16 -20 38 -15 38 7 0 11 5 20 11 20 19 0 38
-68 42 -154 4 -81 6 -88 33 -111 16 -14 32 -25 36 -25 4 0 13 -6 20 -12 7 -7
30 -21 51 -31 29 -13 37 -22 32 -36 -4 -12 7 -31 32 -60 36 -40 42 -42 118
-51 43 -6 87 -8 96 -5 21 7 43 99 34 138 -4 13 1 54 10 90 9 36 15 71 14 79
-3 18 12 68 20 68 10 0 38 59 57 120 9 30 21 59 25 65 5 5 9 26 9 46 0 21 5
41 10 44 6 3 10 15 10 27 0 26 31 78 46 78 21 0 39 -29 26 -42 -14 -14 -16
-38 -4 -38 4 0 30 20 57 45 48 43 50 44 58 23 4 -12 8 -38 9 -57z m-1209 -73
c-3 -46 -9 -96 -14 -112 -10 -33 -12 -100 -3 -109 4 -4 25 12 47 34 53 52 73
49 69 -12 -2 -31 1 -49 12 -58 13 -11 13 -16 -1 -49 -8 -20 -23 -43 -33 -52
-9 -8 -20 -25 -24 -37 -4 -13 -12 -23 -17 -23 -5 0 -9 -9 -9 -19 0 -11 -4 -23
-10 -26 -5 -3 -11 -43 -11 -88 -2 -92 -5 -82 -33 88 -24 148 -18 502 10 547
14 22 20 -9 17 -84z m161 -424 c9 -3 16 -14 16 -25 0 -10 7 -22 16 -27 13 -8
16 -22 12 -77 -5 -83 -23 -103 -87 -97 -37 4 -41 7 -41 32 0 16 5 32 10 35 6
3 10 23 10 43 0 20 7 50 15 66 8 15 15 35 15 42 0 15 10 17 34 8z"/>
<path d="M6495 7390 c-3 -5 -8 -89 -11 -186 -5 -166 -4 -180 17 -231 12 -31
22 -61 22 -69 0 -7 4 -11 8 -8 4 2 9 0 11 -6 2 -6 9 -1 16 11 8 12 9 18 3 14
-6 -3 -11 -1 -11 4 0 6 5 11 11 11 5 0 7 6 3 13 -5 7 0 6 11 -3 19 -15 19 -14
3 12 -15 22 -15 28 -3 38 12 10 13 8 10 -9 -2 -11 2 -24 8 -27 7 -4 9 -3 4 1
-4 5 1 17 10 28 10 11 13 18 7 14 -13 -7 -54 45 -54 68 0 9 -7 27 -16 40 -16
24 -11 51 7 40 5 -4 9 -1 9 5 0 6 12 3 27 -7 31 -21 53 -25 53 -11 0 6 -7 8
-14 5 -9 -4 -18 2 -22 15 -4 13 -9 17 -13 9 -8 -12 -54 29 -50 45 2 5 0 23 -4
39 -3 17 -9 50 -13 75 -3 25 -10 48 -16 51 -6 4 -7 12 -4 18 4 6 5 11 2 11 -3
0 -8 -4 -11 -10z"/>
<path d="M8423 9988 c1 -7 -3 -12 -8 -11 -14 2 -18 -44 -5 -52 6 -4 7 -11 4
-17 -4 -6 -12 -1 -21 13 l-14 24 7 -25 c6 -22 5 -23 -9 -11 -9 7 -14 18 -10
25 4 7 1 7 -8 -1 -12 -10 -18 -10 -29 0 -12 10 -12 9 -3 -3 6 -8 12 -19 12
-25 1 -5 7 -10 13 -10 7 0 14 -8 16 -17 5 -27 -34 -23 -43 5 -4 12 -6 26 -6
31 1 5 -4 5 -11 0 -23 -17 -64 -2 -52 18 4 6 2 8 -4 4 -6 -3 -9 -15 -7 -25 2
-10 -1 -24 -6 -32 -7 -11 -9 -10 -10 6 -1 11 -1 24 0 29 1 4 -3 14 -9 20 -5 7
-8 16 -5 19 3 4 2 5 -2 2 -11 -8 -12 -36 -2 -29 6 3 7 -7 4 -24 -3 -21 0 -32
10 -36 12 -4 13 -10 6 -25 -12 -22 -38 -22 -51 0 -7 10 -9 8 -7 -8 0 -12 4
-20 8 -17 4 2 10 0 13 -5 8 -13 31 -8 53 10 16 14 33 17 48 9 3 -1 10 -4 15
-5 6 -1 11 -3 13 -4 1 -2 11 -4 23 -6 13 -3 21 1 21 10 0 18 -9 19 -26 3 -10
-9 -12 -9 -7 -1 4 8 0 11 -14 8 -13 -3 -18 0 -14 7 4 6 3 8 -4 4 -6 -3 -14 -2
-17 4 -4 6 -1 9 6 8 7 -2 13 2 14 9 0 6 4 15 8 20 5 4 7 -3 5 -17 -3 -26 13
-33 44 -18 13 6 16 4 13 -12 -2 -11 1 -23 7 -26 7 -5 9 0 6 14 -4 12 0 26 8
33 8 6 11 16 7 22 -4 6 -10 3 -15 -9 -8 -18 -8 -18 -5 1 1 12 10 20 22 20 11
0 26 4 34 9 10 6 12 5 9 -5 -3 -8 -12 -13 -21 -13 -11 1 -14 -5 -10 -25 3 -14
6 -35 8 -46 4 -31 4 -32 20 -32 8 0 13 2 10 5 -2 3 2 14 10 24 7 11 11 26 9
33 -7 18 36 47 52 35 8 -8 13 -5 17 10 3 11 1 23 -5 26 -5 3 -7 12 -4 20 3 7
1 16 -3 19 -5 2 -8 -12 -6 -32 2 -32 1 -34 -11 -19 -7 10 -11 27 -9 38 4 20 4
20 -15 3 -20 -18 -29 -8 -10 11 7 7 6 11 -4 11 -8 0 -15 -3 -14 -6 2 -20 -3
-31 -12 -26 -6 4 -8 11 -4 16 3 5 1 8 -4 7 -6 -2 -10 2 -10 7 0 6 5 9 11 7 6
-2 5 4 -3 12 -15 19 -21 20 -17 4z"/>
<path d="M3649 9955 c-1 -3 -2 -9 -3 -15 0 -5 -5 -9 -11 -7 -5 1 -9 4 -8 8 1
3 -9 5 -22 5 -13 0 -22 -3 -19 -7 2 -4 0 -10 -6 -14 -5 -3 -10 -1 -10 6 0 18
-10 5 -15 -19 -2 -14 1 -19 13 -17 17 2 32 -12 32 -30 0 -5 -4 -3 -10 5 -5 8
-12 11 -16 7 -4 -4 2 -14 14 -23 12 -8 20 -19 17 -24 -3 -4 2 -13 9 -19 8 -7
17 -8 20 -3 4 7 81 9 81 2 0 -10 37 -4 47 8 8 10 9 13 1 9 -15 -10 -28 12 -15
25 7 7 7 19 2 33 -5 13 -6 26 -3 29 3 3 1 12 -5 19 -7 8 -11 16 -9 18 1 2 0 3
-2 1 -3 -1 -6 -9 -7 -17 -1 -8 2 -12 7 -9 6 3 8 -6 5 -22 -3 -16 0 -32 7 -36
7 -5 2 -6 -13 -4 -14 3 -28 5 -32 5 -9 1 -6 31 6 49 5 8 3 11 -5 10 -7 -2 -13
2 -14 9 0 6 -3 14 -6 18 -4 3 -6 -2 -5 -12 0 -10 -3 -19 -9 -20 -5 -1 -9 6 -9
17 1 18 -4 28 -7 15z"/>
<path d="M10578 9182 c-17 -3 -18 -26 -18 -303 l0 -299 60 0 60 0 0 64 c0 49
5 69 21 90 11 14 24 26 29 26 5 0 32 -40 61 -90 l51 -90 69 0 69 0 -80 130
-80 131 72 80 c40 44 75 84 76 90 2 5 -26 9 -65 9 l-68 0 -77 -82 -77 -83 -1
165 0 166 -42 -1 c-24 0 -51 -1 -60 -3z"/>
<path d="M9692 9159 c-43 -22 -84 -66 -96 -105 -5 -17 1 -22 45 -36 l51 -17
30 35 c69 78 180 16 133 -75 -9 -18 -72 -90 -141 -161 -122 -126 -124 -129
-124 -174 l0 -46 205 0 205 0 0 50 0 50 -120 0 c-66 0 -120 3 -120 6 0 4 42
50 93 104 112 116 142 169 135 241 -3 28 -14 63 -25 77 -50 69 -183 94 -271
51z"/>
<path d="M10169 9160 c-94 -51 -133 -161 -90 -255 24 -53 73 -93 122 -101 22
-4 42 -10 44 -14 3 -5 -29 -51 -70 -104 -41 -53 -75 -98 -75 -101 0 -3 31 -5
69 -5 l69 0 96 123 c127 162 150 207 144 291 -4 73 -29 118 -86 157 -49 33
-170 39 -223 9z m161 -108 c13 -10 23 -33 27 -59 5 -35 2 -45 -20 -67 -29 -29
-89 -35 -119 -12 -65 49 -29 156 53 156 20 0 46 -8 59 -18z"/>
<path d="M1580 4345 l0 -55 60 0 60 0 0 -245 0 -245 60 0 60 0 0 300 0 300
-120 0 -120 0 0 -55z"/>
<path d="M2347 4218 c-124 -177 -127 -182 -127 -235 l0 -53 130 0 130 0 0 -65
0 -65 60 0 60 0 0 65 0 65 48 0 48 0 -1 48 0 47 -48 3 -47 3 0 185 0 184 -63
0 -63 0 -127 -182z m133 -83 l0 -105 -71 0 c-39 0 -69 4 -67 9 4 10 132 200
136 201 1 0 2 -47 2 -105z"/>
<path d="M2816 4373 c-3 -16 -12 -80 -21 -143 -9 -63 -18 -127 -21 -142 -5
-25 -2 -27 46 -37 47 -10 53 -9 68 10 11 12 34 23 59 26 38 5 45 2 74 -26 28
-28 31 -37 26 -72 -7 -50 -30 -77 -72 -85 -38 -7 -71 7 -101 43 l-22 25 -51
-17 c-56 -18 -56 -17 -40 -48 24 -46 74 -88 123 -102 62 -19 80 -19 142 0 116
34 175 161 129 272 -35 83 -97 118 -196 111 l-67 -5 5 41 c8 69 1 66 133 66
l120 0 0 55 0 55 -164 0 -164 0 -6 -27z"/>
<path d="M3240 4345 l0 -55 60 0 60 0 0 -245 0 -245 60 0 60 0 0 300 0 300
-120 0 -120 0 0 -55z"/>
<path d="M1990 3860 c0 -60 0 -60 30 -60 28 0 29 -2 19 -24 -6 -13 -22 -30
-35 -37 -17 -9 -24 -21 -24 -41 0 -26 3 -28 23 -22 72 23 107 81 107 179 l0
65 -60 0 -60 0 0 -60z"/>
</g>
</svg>
